<svg width="250" height="100" viewBox="0 0 250 100" fill="none" xmlns="http://www.w3.org/2000/svg">
<path d="M92 61.8659H95.773V49.352H109.356V45.8064H95.773V36.2123H113.087V32.6667H92V61.8659Z" fill="white"/>
<path d="M114.968 37.1717H118.741V32.6667H114.968V37.1717ZM115.094 61.8659H118.657V41.2179H115.094V61.8659Z" fill="white"/>
<path d="M126.536 70H136.22C139.741 70 142.717 68.1646 142.717 64.327C142.717 60.8648 140.118 58.6123 136.136 58.6123H127.081C125.613 58.6123 125.32 57.8615 125.32 57.1941C125.32 56.4432 126.075 55.6507 127.206 55.1501C128.338 55.8175 129.638 55.9427 131.063 55.9427C135.675 55.9427 138.819 52.8976 139.154 48.2257L139.238 47.0995C139.406 44.6801 140.118 44.2213 142.005 44.2213H143.598V41.2179H141.376C139.364 41.2179 138.4 42.5944 137.98 44.1795C137.1 42.7196 134.92 40.6339 131.063 40.6339C126.284 40.6339 122.805 44.0127 122.805 48.3091C122.805 50.8954 123.937 52.7725 125.11 53.8153C123.769 54.7747 122.05 56.1512 122.05 58.1952C122.05 59.822 122.721 60.7814 123.895 61.4905C122.637 62.1996 121.128 63.743 121.128 65.8287C121.128 68.2481 122.553 70 126.536 70ZM131.063 53.0227C128.254 53.0227 126.41 51.1456 126.41 48.3091C126.41 45.4726 128.254 43.5538 131.063 43.5538C133.872 43.5538 135.717 45.4726 135.717 48.3091C135.717 51.1456 133.872 53.0227 131.063 53.0227ZM127.751 66.8298C125.571 66.8298 124.398 66.371 124.398 64.6607C124.398 63.2425 125.32 62.3248 126.033 61.8659H135.842C137.477 61.8659 139.112 62.1996 139.112 64.327C139.112 66.4544 137.477 66.8298 135.842 66.8298H127.751Z" fill="white"/>
<path d="M145.271 61.8659H148.834V52.2719C148.834 49.3103 149.086 43.8041 154.159 43.8041C156.925 43.8041 158.77 45.2224 158.77 49.2268V61.8659H162.249V52.2719C162.249 49.3103 162.375 43.8041 167.615 43.8041C170.382 43.8041 172.185 45.2224 172.185 49.2268V61.8659H175.748V48.184C175.748 43.387 173.233 40.6339 168.496 40.6339C164.094 40.6339 162.249 43.3453 161.537 45.0555C160.489 42.2607 158.057 40.6339 154.997 40.6339C151.266 40.6339 149.505 43.0116 148.751 44.3464V41.2179H145.271V61.8659Z" fill="white"/>
<path d="M185.336 62.4499C188.564 62.4499 190.534 61.0734 192.085 58.7375C192.336 60.4477 192.798 61.8659 195.942 61.8659H198.667V58.7375H196.487C195.523 58.7375 195.271 58.4872 195.271 57.5278V47.7252C195.271 43.4704 192.714 40.6339 187.18 40.6339C181.772 40.6339 178.922 43.5538 178.167 46.3069L181.646 47.5583C182.191 46.0149 183.323 43.7624 187.138 43.7624C190.324 43.7624 191.708 45.2641 191.708 47.7669V48.3509C184.958 48.8931 178.628 50.8537 178.628 56.5266C178.628 60.1974 181.227 62.4499 185.336 62.4499ZM186.174 59.4466C183.575 59.4466 182.317 58.1952 182.317 56.2347C182.317 52.8559 186.635 51.5628 191.708 51.0205V53.3147C191.708 57.6112 188.899 59.4466 186.174 59.4466Z" fill="white"/>
<g clip-path="url(#clip0_262_67090)">
<path d="M58.8904 70C62.6923 70 65.7779 67.0134 65.7779 63.3334V56.6667H58.8904C55.0885 56.6667 52.0029 59.6534 52.0029 63.3334C52.0029 67.0134 55.0885 70 58.8904 70Z" fill="#0ACF83"/>
<path d="M52.0029 50.0001C52.0029 46.3201 55.0885 43.3334 58.8904 43.3334H65.7779V56.6668H58.8904C55.0885 56.6668 52.0029 53.6801 52.0029 50.0001Z" fill="#A259FF"/>
<path d="M52.0029 36.6667C52.0029 32.9867 55.0885 30.0001 58.8904 30.0001H65.7779V43.3334H58.8904C55.0885 43.3334 52.0029 40.3467 52.0029 36.6667Z" fill="#F24E1E"/>
<path d="M65.7778 30.0001H72.6653C76.4673 30.0001 79.5529 32.9867 79.5529 36.6667C79.5529 40.3467 76.4673 43.3334 72.6653 43.3334H65.7778V30.0001Z" fill="#FF7262"/>
<path d="M79.5529 50.0001C79.5529 53.6801 76.4673 56.6668 72.6653 56.6668C68.8634 56.6668 65.7778 53.6801 65.7778 50.0001C65.7778 46.3201 68.8634 43.3334 72.6653 43.3334C76.4673 43.3334 79.5529 46.3201 79.5529 50.0001Z" fill="#1ABCFE"/>
</g>
<defs>
<clipPath id="clip0_262_67090">
<rect width="27.5556" height="40" fill="white" transform="translate(52 30)"/>
</clipPath>
</defs>
</svg>
