<svg width="250" height="100" viewBox="0 0 250 100" fill="none" xmlns="http://www.w3.org/2000/svg">
<path d="M82.2522 62.7823V36.6695H76.7871V62.7823H82.2522Z" fill="white"/>
<path d="M99.6785 63.4519C105.976 63.4519 110.572 59.5612 111.025 53.9152H105.705C105.18 56.7925 102.827 58.6383 99.6966 58.6383C95.5706 58.6383 93.0192 55.2181 93.0192 49.7169C93.0192 44.2156 95.5706 40.8136 99.6785 40.8136C102.791 40.8136 105.162 42.7861 105.687 45.79H111.007C110.609 40.1078 105.867 36 99.6785 36C92.0963 36 87.4272 41.2298 87.4272 49.7169C87.4272 58.2221 92.1144 63.4519 99.6785 63.4519Z" fill="white"/>
<path d="M127.474 36C119.783 36 114.897 41.2479 114.897 49.7169C114.897 58.1859 119.711 63.4519 127.474 63.4519C135.183 63.4519 140.033 58.1859 140.033 49.7169C140.033 41.266 135.165 36 127.474 36ZM127.474 40.7955C131.709 40.7955 134.442 44.2519 134.442 49.7169C134.442 55.1638 131.727 58.6564 127.474 58.6564C123.168 58.6564 120.489 55.1638 120.489 49.7169C120.489 44.2519 123.222 40.7955 127.474 40.7955Z" fill="white"/>
<path d="M150.456 62.7823V46.4414H150.782L162.834 62.7823H167.358V36.6695H162.128V52.938H161.803L149.787 36.6695H145.227V62.7823H150.456Z" fill="white"/>
<path d="M172.534 55.5258C172.733 60.3936 176.768 63.4519 182.993 63.4519C189.544 63.4519 193.579 60.2308 193.579 54.9648C193.579 50.9113 191.317 48.6492 186.07 47.5453L182.921 46.8758C179.863 46.2243 178.614 45.3014 178.614 43.6909C178.614 41.7003 180.424 40.4335 183.156 40.4335C185.798 40.4335 187.716 41.8089 187.97 43.8718H193.109C192.946 39.2211 188.875 36 183.12 36C177.094 36 173.131 39.2392 173.131 44.1614C173.131 48.1425 175.466 50.6217 180.225 51.617L183.626 52.3408C186.83 53.0285 188.132 53.9876 188.132 55.6524C188.132 57.6249 186.124 59.0002 183.283 59.0002C180.206 59.0002 178.071 57.643 177.818 55.5258H172.534Z" fill="white"/>
<path d="M208.436 63.4519C214.716 63.4519 219.005 60.3393 219.005 55.761C219.005 52.4313 216.707 49.7893 213.232 49.1378V48.8121C216.091 48.1425 217.937 45.9167 217.937 43.1299C217.937 38.9678 213.992 36 208.455 36C202.899 36 198.954 38.9678 198.954 43.1299C198.954 45.8986 200.818 48.1606 203.659 48.8121V49.1378C200.167 49.916 197.905 52.5399 197.905 55.8153C197.905 60.3575 202.157 63.4519 208.436 63.4519ZM208.436 59.326C205.578 59.326 203.587 57.6792 203.587 55.3086C203.587 52.9199 205.578 51.2732 208.436 51.2732C211.314 51.2732 213.305 52.9199 213.305 55.3086C213.305 57.6792 211.314 59.326 208.436 59.326ZM208.436 47.2377C206.03 47.2377 204.347 45.7538 204.347 43.6547C204.347 41.5374 206.012 40.0535 208.436 40.0535C210.862 40.0535 212.544 41.5374 212.544 43.6547C212.544 45.7538 210.862 47.2377 208.436 47.2377Z" fill="white"/>
<path d="M44.589 36H31V63.178H44.589V36Z" fill="#4DA44F"/>
<path d="M51.3834 49.589C55.1359 49.589 58.1779 46.547 58.1779 42.7945C58.1779 39.042 55.1359 36 51.3834 36C47.6309 36 44.5889 39.042 44.5889 42.7945C44.5889 46.547 47.6309 49.589 51.3834 49.589Z" fill="#4DA44F"/>
<path d="M51.3834 63.178C55.1359 63.178 58.1779 60.136 58.1779 56.3835C58.1779 52.631 55.1359 49.589 51.3834 49.589C47.6309 49.589 44.5889 52.631 44.5889 56.3835C44.5889 60.136 47.6309 63.178 51.3834 63.178Z" fill="#4DA44F"/>
</svg>
