<svg width="118" height="77" viewBox="0 0 118 77" fill="none" xmlns="http://www.w3.org/2000/svg">
<path fill-rule="evenodd" clip-rule="evenodd" d="M29.2077 0V28.2778L48.6457 31.085V0H55.2114V38.54L22.642 33.8364V0H29.2077Z" fill="white"/>
<path fill-rule="evenodd" clip-rule="evenodd" d="M84.0017 12.2567V0H90.5674V16.716L82.5031 19.7147L90.5674 22.5909V33.8903L90.5651 33.8752L84.0017 34.8383V27.1153L75.1785 23.9684L65.3412 27.1815V37.5766L58.7755 38.54V22.5247L66.9837 19.8437L57.998 16.7838V0H64.5637V12.1889L74.8051 15.6764L84.0017 12.2567Z" fill="white"/>
<path fill-rule="evenodd" clip-rule="evenodd" d="M10.4651 69.6882L13.6827 40.9156L6.54324 39.4597L6.54324 50.0509H1.6475e-06L0 31.5172L17.8658 35.1603L28.9119 37.0112L27.8191 43.3925L20.1328 42.1046L16.9687 70.3998L10.4651 69.6882Z" fill="white"/>
<path fill-rule="evenodd" clip-rule="evenodd" d="M32.1346 37.6835L54.1663 40.8594L53.2201 47.2765L37.6784 45.0361L34.4259 67.0948L47.1689 69.017V49.1558H53.7275V76.5662L26.9961 72.534L32.1346 37.6835Z" fill="white"/>
<path fill-rule="evenodd" clip-rule="evenodd" d="M80.5366 37.5122L80.9852 40.7099C81.6191 45.2275 81.9793 48.8646 81.8224 51.7489C81.6633 54.6744 80.9513 57.2859 79.0088 59.3033C77.1403 61.2439 74.5721 62.1601 71.8859 62.77C69.846 63.2332 67.3755 63.5899 64.5557 63.9724L64.5557 68.6848L72.3062 67.3233L73.4582 73.6789L57.998 76.3948L57.998 40.5773L80.5366 37.5122ZM64.5557 57.4538C66.9308 57.1263 68.8348 56.8372 70.4123 56.4791C72.7513 55.948 73.7442 55.3867 74.2497 54.8617C74.6813 54.4135 75.1563 53.5714 75.2742 51.4037C75.3634 49.7623 75.2357 47.6312 74.9047 44.7955L64.5557 46.2029L64.5557 57.4538Z" fill="white"/>
<path fill-rule="evenodd" clip-rule="evenodd" d="M113.359 30.832L117.912 66.3005L93.6253 70.571L93.3588 67.0004C93.0267 62.5489 92.7863 59.055 92.9088 56.3712C93.0316 53.6796 93.5303 51.2106 95.1892 49.2141C96.8141 47.2585 99.1428 46.2633 101.568 45.4975C103.174 44.9901 105.178 44.4862 107.485 43.9061C107.77 43.8344 108.06 43.7616 108.354 43.6874L107.727 38.805L92.1358 42.5227L90.5675 36.2665L113.359 30.832ZM109.181 50.1318C109.07 50.1598 108.959 50.1875 108.85 50.215C106.703 50.7543 105.02 51.1768 103.602 51.6247C101.425 52.3121 100.677 52.8386 100.32 53.2689C99.9964 53.6582 99.6072 54.4393 99.506 56.6575C99.4334 58.2467 99.5144 60.269 99.6908 62.9602L110.582 61.045L109.181 50.1318Z" fill="white"/>
<path fill-rule="evenodd" clip-rule="evenodd" d="M89.1469 36.6112L91.6969 71.0937L85.1476 71.5621L82.5977 37.0796L89.1469 36.6112Z" fill="white"/>
</svg>
