<svg width="603" height="482" viewBox="0 0 603 482" fill="none" xmlns="http://www.w3.org/2000/svg">
<path d="M43.54 269.819C73.0877 246.298 90.1935 232.681 167.052 231.589C188.482 221.057 208.907 216.352 256.025 209.497C258.612 209.435 261.146 209.372 263.631 209.31C313.502 208.067 343.701 207.314 390.695 231.589C405.184 226.069 414.435 228.065 431.949 231.845C448.454 235.407 472.296 240.552 514.773 242.483C530.005 249.7 543.23 253.774 554.573 257.269C578.607 264.673 594.196 269.476 602.536 296.049C598.059 303.335 594.184 308.698 590.69 312.536L579.233 335.693H555.639L555.105 348.753L523.357 355.124L514.983 349.009H511.599L498.118 387.782L453.611 396.713L440.847 381.298L438.559 384.714L438.401 388.594L435.58 389.16L432.76 393.369H431.958L431.435 406.18L400.602 412.367L386.494 452.943L341.987 461.874L323.421 439.451L322.416 438.834L289.445 445.451L259.795 467.588L227.321 416.089L219.057 406.062L183.394 420.962L161.686 370.911L151.498 354.154H148.592L148.308 353.893L108.342 363.232L86.6343 335.236L42.0661 294.233H44.0488C39.3789 288.862 38.7264 281.597 41.7636 271.233C42.361 270.758 42.953 270.287 43.54 269.819Z" fill="#FFC107"/>
<path d="M260.218 438.454L199.017 364.192L421.553 319.537L419.1 379.606L387.351 385.977L367.193 443.954L322.686 452.885L303.539 429.761L260.218 438.454Z" fill="url(#paint0_linear)"/>
<path d="M371.843 373.293L310.642 299.031L533.178 254.376L530.725 314.445L498.976 320.815L478.818 378.793L434.311 387.724L415.164 364.6L371.843 373.293Z" fill="url(#paint1_linear)"/>
<path d="M240.495 458.599L192.053 381.777L414.589 337.122L412.135 397.191L380.387 403.561L346.029 378.472L322.982 442.047L289.889 421.721L240.495 458.599Z" fill="url(#paint2_linear)"/>
<path d="M364.165 401.172L315.723 324.35L538.259 279.695L535.806 339.764L504.057 346.135L469.7 321.046L446.652 384.62L413.559 364.294L364.165 401.172Z" fill="url(#paint3_linear)"/>
<path d="M209.134 408.451L147.933 334.189L370.469 289.535L368.015 349.603L336.267 355.974L316.108 413.952L271.601 422.883L252.454 399.759L209.134 408.451Z" fill="url(#paint4_linear)"/>
<path d="M204.344 395.744L158.95 321.082H385.922L371.698 372.479H339.317L308.146 419.008H262.752L248.528 395.744H204.344Z" fill="url(#paint5_linear)"/>
<path d="M309.66 361.118L264.265 286.456H491.237L477.014 337.854H444.632L413.461 384.382H368.067L353.843 361.118H309.66Z" fill="url(#paint6_linear)"/>
<path d="M164.094 411.974L131.713 337.312H358.685L344.462 388.71H312.08L283.33 361.117L248.225 411.974L219.778 388.71L164.094 411.974Z" fill="url(#paint7_linear)"/>
<path d="M296.646 383.841L264.265 309.179H491.237L477.014 360.577H444.632L415.882 332.984L380.777 383.841L352.33 360.577L296.646 383.841Z" fill="url(#paint8_linear)"/>
<path d="M143.214 363.282L97.8192 288.621H324.791L310.568 340.018H278.186L247.015 386.546H201.621L187.397 363.282H143.214Z" fill="url(#paint9_linear)"/>
<path d="M129.293 345.166L83.899 303.403H310.871L296.647 332.153H264.266L233.095 358.179H187.701L173.477 345.166H129.293Z" fill="url(#paint10_linear)"/>
<path d="M234.609 325.798L189.214 284.035H416.186L401.963 312.785H369.581L338.41 338.811H293.016L278.792 325.798H234.609Z" fill="url(#paint11_linear)"/>
<path d="M89.0436 354.245L56.6622 312.482H283.634L269.411 341.232H237.029L208.279 325.798L173.174 354.245L144.727 341.232L89.0436 354.245Z" fill="url(#paint12_linear)"/>
<path d="M213.122 352.43L180.741 310.667H407.713L393.489 339.417H361.108L332.358 323.982L297.253 352.43L268.806 339.417L213.122 352.43Z" fill="url(#paint13_linear)"/>
<path d="M68.1626 327.008L22.7682 285.245H249.74L235.517 313.995H203.135L171.964 340.021H126.57L112.346 327.008H68.1626Z" fill="url(#paint14_linear)"/>
<path d="M287.265 346.376L241.87 304.613H468.842L454.619 333.363H422.237L391.066 359.389H345.672L331.449 346.376H287.265Z" fill="url(#paint15_linear)"/>
<path d="M392.58 327.008L347.185 285.245H574.157L559.934 313.995H527.552L496.382 340.021H450.987L436.764 327.008H392.58Z" fill="url(#paint16_linear)"/>
<path d="M247.015 355.454L214.633 313.691H441.605L427.382 342.441H395L366.251 327.007L331.146 355.454L302.699 342.441L247.015 355.454Z" fill="url(#paint17_linear)"/>
<path d="M379.567 339.718L347.185 297.956H574.157L559.934 326.705H527.552L498.803 311.271L463.698 339.718L435.25 326.705L379.567 339.718Z" fill="url(#paint18_linear)"/>
<path d="M226.134 328.218L180.739 286.455H407.711L393.488 315.205H361.106L329.936 341.231H284.541L270.318 328.218H226.134Z" fill="url(#paint19_linear)"/>
<path d="M147.752 222.6C69.3668 223.714 53.1319 237.856 22.4639 262.245C14.9997 287.715 29.8205 294.473 71.7925 300.376C96.0558 330.848 155.303 318.708 255.791 300.376C494.453 335.204 468.689 312.458 530.276 300.376C552.824 310.527 559.714 325.345 583.236 287.06C570.96 247.946 542.978 256.001 495.473 233.495C407.92 229.514 399.538 211.879 371.395 222.6C322.06 197.117 291.234 199.216 236.725 200.509C189.607 207.364 169.183 212.069 147.752 222.6Z" fill="#EF5350"/>
<path fill-rule="evenodd" clip-rule="evenodd" d="M430.627 281.386C444.132 292.115 453.671 299.694 472.775 295.232C501.408 290.805 517.137 287.594 543.591 278.285C555.676 288.293 565.172 294.821 574.649 299.664C561.072 317.041 553.373 312.771 540.926 305.868C537.745 304.103 534.254 302.167 530.276 300.376C517.06 302.969 507.866 306.053 499.219 308.953C467.57 319.569 443.238 327.73 255.791 300.376C252.176 301.036 248.614 301.687 245.105 302.329C151.086 319.526 95.1829 329.751 71.7925 300.376C29.8205 294.473 14.9997 287.715 22.4639 262.245C23.0613 261.77 23.6533 261.299 24.2403 260.831C53.7881 237.31 70.8938 223.693 147.752 222.6C148.865 222.054 149.976 221.522 151.087 221.006C147.217 232.277 119.436 237.281 93.8365 241.892C63.6617 247.327 36.5194 252.216 55.1471 266.179C83.4138 316.675 191.442 255.957 236.489 230.638C241.117 228.037 245.081 225.809 248.224 224.114C251.693 236.329 273.432 237.139 294.721 237.932C309.627 238.487 324.313 239.035 332.355 243.482C389.952 249.07 413.484 267.766 430.627 281.386ZM167.971 214.329L325.323 204.935C300.016 198.934 276.187 199.528 244.332 200.322C241.847 200.384 239.313 200.447 236.725 200.509C204.049 205.263 184.21 208.983 167.971 214.329Z" fill="#F44336"/>
<path fill-rule="evenodd" clip-rule="evenodd" d="M221.729 7.29395V103.372L286.859 112.91V7.29395H308.858V138.24L199.73 122.258V7.29395H221.729Z" fill="#FFC107"/>
<path fill-rule="evenodd" clip-rule="evenodd" d="M405.324 48.9379V7.29395H427.324V64.0891L400.303 74.2776L427.324 84.05V122.442L427.316 122.39L405.324 125.662V99.4223L375.761 88.7303L342.8 99.6474V134.966L320.8 138.24V83.825L348.303 74.7159L318.195 64.3194V7.29395H340.194V48.7076L374.51 60.557L405.324 48.9379Z" fill="#FFC107"/>
<path fill-rule="evenodd" clip-rule="evenodd" d="M158.929 244.07L169.71 146.311L145.789 141.364L145.789 177.35H123.865L123.865 114.378L183.726 126.756L220.738 133.045L217.076 154.727L191.322 150.351L180.721 246.488L158.929 244.07Z" fill="#FFC107"/>
<path fill-rule="evenodd" clip-rule="evenodd" d="M231.536 135.33L305.356 146.12L302.186 167.923L250.111 160.311L239.214 235.259L281.911 241.79V174.308H303.886V267.439L214.319 253.739L231.536 135.33Z" fill="#FFC107"/>
<path fill-rule="evenodd" clip-rule="evenodd" d="M393.714 134.748L395.217 145.612C397.341 160.962 398.548 173.319 398.022 183.119C397.489 193.059 395.103 201.932 388.595 208.786C382.334 215.38 373.729 218.493 364.729 220.565C357.893 222.138 349.616 223.35 340.167 224.65L340.167 240.661L366.137 236.035L369.996 257.629L318.195 266.857L318.195 145.162L393.714 134.748ZM340.167 202.502C348.126 201.389 354.505 200.407 359.791 199.19C367.628 197.386 370.955 195.479 372.649 193.695C374.095 192.172 375.686 189.311 376.081 181.946C376.38 176.369 375.952 169.128 374.843 159.493L340.167 164.275L340.167 202.502Z" fill="#FFC107"/>
<path fill-rule="evenodd" clip-rule="evenodd" d="M503.691 112.05L518.945 232.56L437.569 247.07L436.677 234.938C435.564 219.813 434.758 207.942 435.169 198.824C435.58 189.679 437.251 181.29 442.81 174.506C448.254 167.862 456.057 164.481 464.181 161.879C469.564 160.155 476.279 158.443 484.009 156.472C484.964 156.228 485.935 155.981 486.92 155.729L484.821 139.14L432.579 151.771L427.324 130.515L503.691 112.05ZM489.692 177.624C489.318 177.72 488.948 177.814 488.582 177.907C481.387 179.74 475.75 181.175 470.998 182.697C463.705 185.033 461.198 186.821 460.001 188.283C458.917 189.606 457.612 192.26 457.273 199.797C457.03 205.196 457.302 212.067 457.893 221.211L494.385 214.704L489.692 177.624Z" fill="#FFC107"/>
<path fill-rule="evenodd" clip-rule="evenodd" d="M422.564 131.686L431.108 248.846L409.164 250.437L400.62 133.278L422.564 131.686Z" fill="#FFC107"/>
<path fill-rule="evenodd" clip-rule="evenodd" d="M202.279 0V96.0783L267.409 105.616V0H289.408V130.946L180.28 114.965V0H202.279Z" fill="white"/>
<path fill-rule="evenodd" clip-rule="evenodd" d="M385.874 41.644V0H407.873V56.7952L380.853 66.9837L407.873 76.7561V115.148L407.866 115.096L385.874 118.368V92.1284L356.311 81.4364L323.35 92.3534V127.672L301.35 130.946V76.5311L328.853 67.422L298.745 57.0255V0H320.744V41.4137L355.059 53.263L385.874 41.644Z" fill="white"/>
<path fill-rule="evenodd" clip-rule="evenodd" d="M139.479 236.777L150.26 139.017L126.338 134.071L126.338 170.056H104.414L104.414 107.084L164.276 119.462L201.288 125.751L197.626 147.433L171.872 143.057L161.27 239.194L139.479 236.777Z" fill="white"/>
<path fill-rule="evenodd" clip-rule="evenodd" d="M212.086 128.036L285.906 138.826L282.736 160.629L230.661 153.017L219.763 227.965L262.461 234.496V167.014H284.436V260.145L194.869 246.446L212.086 128.036Z" fill="white"/>
<path fill-rule="evenodd" clip-rule="evenodd" d="M374.264 127.454L375.767 138.318C377.891 153.668 379.098 166.025 378.572 175.825C378.039 185.765 375.653 194.638 369.145 201.492C362.884 208.086 354.279 211.199 345.278 213.271C338.443 214.844 330.165 216.056 320.717 217.356L320.717 233.367L346.687 228.741L350.546 250.336L298.745 259.563L298.745 137.868L374.264 127.454ZM320.717 195.208C328.676 194.095 335.055 193.113 340.341 191.896C348.178 190.092 351.505 188.185 353.199 186.401C354.645 184.878 356.236 182.017 356.631 174.652C356.93 169.075 356.502 161.834 355.393 152.2L320.717 156.981L320.717 195.208Z" fill="white"/>
<path fill-rule="evenodd" clip-rule="evenodd" d="M484.241 104.756L499.495 225.266L418.119 239.776L417.226 227.644C416.114 212.519 415.308 200.648 415.718 191.53C416.13 182.385 417.801 173.996 423.359 167.212C428.804 160.568 436.607 157.187 444.731 154.585C450.114 152.861 456.829 151.149 464.559 149.178C465.514 148.934 466.485 148.687 467.47 148.435L465.371 131.846L413.129 144.478L407.874 123.221L484.241 104.756ZM470.242 170.33C469.868 170.426 469.498 170.52 469.132 170.613C461.936 172.446 456.299 173.881 451.548 175.403C444.255 177.739 441.748 179.527 440.55 180.989C439.467 182.312 438.162 184.966 437.823 192.503C437.58 197.902 437.851 204.773 438.443 213.917L474.935 207.41L470.242 170.33Z" fill="white"/>
<path fill-rule="evenodd" clip-rule="evenodd" d="M403.114 124.392L411.658 241.552L389.714 243.143L381.17 125.984L403.114 124.392Z" fill="white"/>
<path d="M473.55 234.467L494.055 259.347L419.497 274.308L420.319 254.183L430.956 252.049L437.71 232.624L452.621 229.632L459.036 237.379L473.55 234.467Z" fill="url(#paint20_linear)" fill-opacity="0.4"/>
<path d="M436.151 256.298L456.656 281.178L382.098 296.14L382.92 276.014L393.557 273.88L400.31 254.455L415.222 251.463L421.637 259.21L436.151 256.298Z" fill="url(#paint21_linear)" fill-opacity="0.4"/>
<path d="M480.158 227.717L496.388 253.455L421.83 268.416L422.652 248.291L433.289 246.157L444.8 254.562L452.522 233.263L463.609 240.072L480.158 227.717Z" fill="url(#paint22_linear)"/>
<path d="M438.724 246.958L454.954 272.696L380.396 287.657L381.218 267.532L391.855 265.398L403.366 273.803L411.088 252.504L422.175 259.313L438.724 246.958Z" fill="url(#paint23_linear)" fill-opacity="0.4"/>
<path d="M490.665 244.518L511.17 269.399L436.612 284.36L437.434 264.235L448.071 262.1L454.824 242.676L469.736 239.683L476.151 247.431L490.665 244.518Z" fill="url(#paint24_linear)" fill-opacity="0.4"/>
<path d="M492.27 248.777L507.479 273.792L431.434 273.792L436.2 256.572L447.049 256.572L457.492 240.983L472.701 240.983L477.466 248.777L492.27 248.777Z" fill="url(#paint25_linear)" fill-opacity="0.4"/>
<path d="M456.986 260.378L472.194 285.392L396.15 285.392L400.916 268.172L411.765 268.172L422.208 252.583L437.417 252.583L442.182 260.378L456.986 260.378Z" fill="url(#paint26_linear)" fill-opacity="0.4"/>
<path d="M505.755 243.339L516.604 268.354L440.559 268.354L445.325 251.134L456.174 251.134L465.806 260.378L477.568 243.339L487.098 251.134L505.755 243.339Z" fill="url(#paint27_linear)" fill-opacity="0.4"/>
<path d="M461.345 252.765L472.194 277.779L396.15 277.779L400.916 260.559L411.765 260.559L421.397 269.804L433.158 252.765L442.689 260.559L461.345 252.765Z" fill="url(#paint28_linear)" fill-opacity="0.4"/>
<path d="M512.751 259.653L527.96 284.667L451.915 284.667L456.681 267.447L467.53 267.447L477.973 251.858L493.182 251.858L497.947 259.653L512.751 259.653Z" fill="url(#paint29_linear)" fill-opacity="0.4"/>
<path d="M517.415 265.722L532.624 279.715L456.58 279.715L461.346 270.082L472.194 270.082L482.638 261.363L497.847 261.363L502.612 265.722L517.415 265.722Z" fill="url(#paint30_linear)" fill-opacity="0.4"/>
<path d="M482.13 272.212L497.339 286.204L421.295 286.204L426.06 276.572L436.909 276.572L447.353 267.852L462.562 267.852L467.327 272.212L482.13 272.212Z" fill="url(#paint31_linear)" fill-opacity="0.4"/>
<path d="M530.901 262.681L541.75 276.673L465.705 276.673L470.471 267.041L481.32 267.041L490.952 272.212L502.713 262.681L512.244 267.041L530.901 262.681Z" fill="url(#paint32_linear)" fill-opacity="0.4"/>
<path d="M489.33 263.289L500.179 277.281L424.135 277.281L428.9 267.649L439.749 267.649L449.381 272.82L461.143 263.289L470.674 267.649L489.33 263.289Z" fill="url(#paint33_linear)" fill-opacity="0.4"/>
<path d="M537.897 271.806L553.105 285.798L477.061 285.798L481.827 276.166L492.676 276.166L503.119 267.446L518.328 267.446L523.093 271.806L537.897 271.806Z" fill="url(#paint34_linear)" fill-opacity="0.4"/>
<path d="M464.489 265.317L479.698 279.309L403.654 279.309L408.42 269.677L419.268 269.677L429.712 260.957L444.921 260.957L449.686 265.317L464.489 265.317Z" fill="url(#paint35_linear)" fill-opacity="0.4"/>
<path d="M429.205 271.805L444.414 285.798L368.37 285.798L373.136 276.165L383.985 276.165L394.428 267.446L409.637 267.446L414.402 271.805L429.205 271.805Z" fill="url(#paint36_linear)" fill-opacity="0.4"/>
<path d="M477.975 262.275L488.823 276.267L412.779 276.267L417.545 266.635L428.394 266.635L438.026 271.806L449.787 262.275L459.318 266.635L477.975 262.275Z" fill="url(#paint37_linear)"/>
<path d="M433.565 267.547L444.414 281.54L368.37 281.54L373.136 271.907L383.985 271.907L393.617 277.078L405.378 267.547L414.909 271.907L433.565 267.547Z" fill="url(#paint38_linear)" fill-opacity="0.4"/>
<path d="M484.97 271.4L500.179 285.392L424.135 285.392L428.901 275.76L439.75 275.76L450.193 267.04L465.402 267.04L470.167 271.4L484.97 271.4Z" fill="url(#paint39_linear)" fill-opacity="0.4"/>
<path d="M219.343 254.44L239.848 279.32L165.29 294.281L166.112 274.156L176.749 272.021L183.503 252.597L198.414 249.605L204.829 257.352L219.343 254.44Z" fill="url(#paint40_linear)" fill-opacity="0.4"/>
<path d="M181.944 276.271L202.448 301.151L127.89 316.112L128.712 295.987L139.349 293.853L146.103 274.428L161.015 271.436L167.43 279.183L181.944 276.271Z" fill="url(#paint41_linear)" fill-opacity="0.4"/>
<path d="M225.951 247.69L242.181 273.428L167.623 288.389L168.445 268.264L179.082 266.129L190.593 274.535L198.315 253.235L209.402 260.045L225.951 247.69Z" fill="url(#paint42_linear)"/>
<path d="M184.517 266.931L200.747 292.669L126.189 307.63L127.011 287.505L137.648 285.37L149.159 293.776L156.881 272.476L167.968 279.286L184.517 266.931Z" fill="url(#paint43_linear)" fill-opacity="0.4"/>
<path d="M236.458 264.492L256.962 289.372L182.404 304.333L183.226 284.208L193.863 282.073L200.617 262.649L215.529 259.657L221.944 267.404L236.458 264.492Z" fill="url(#paint44_linear)" fill-opacity="0.4"/>
<path d="M238.063 268.751L253.272 293.766L177.228 293.766L181.993 276.546L192.842 276.546L203.285 260.957L218.494 260.957L223.26 268.751L238.063 268.751Z" fill="url(#paint45_linear)" fill-opacity="0.4"/>
<path d="M202.779 280.351L217.988 305.366L141.943 305.366L146.709 288.146L157.558 288.146L168.001 272.557L183.21 272.557L187.976 280.351L202.779 280.351Z" fill="url(#paint46_linear)" fill-opacity="0.4"/>
<path d="M251.548 263.313L262.397 288.327L186.353 288.327L191.119 271.107L201.968 271.107L211.6 280.352L223.361 263.313L232.892 271.107L251.548 263.313Z" fill="url(#paint47_linear)" fill-opacity="0.4"/>
<path d="M207.139 272.738L217.988 297.752L141.943 297.752L146.709 280.532L157.558 280.532L167.19 289.777L178.952 272.738L188.483 280.532L207.139 272.738Z" fill="url(#paint48_linear)" fill-opacity="0.4"/>
<path d="M258.544 279.626L273.753 304.64L197.709 304.64L202.474 287.42L213.323 287.42L223.766 271.832L238.975 271.832L243.741 279.626L258.544 279.626Z" fill="url(#paint49_linear)" fill-opacity="0.4"/>
<path d="M263.208 285.695L278.416 299.687L202.372 299.687L207.138 290.055L217.987 290.055L228.43 281.335L243.639 281.335L248.404 285.695L263.208 285.695Z" fill="url(#paint50_linear)" fill-opacity="0.4"/>
<path d="M227.922 292.184L243.131 306.177L167.087 306.177L171.852 296.544L182.701 296.544L193.145 287.825L208.354 287.825L213.119 292.184L227.922 292.184Z" fill="url(#paint51_linear)" fill-opacity="0.4"/>
<path d="M276.693 282.653L287.542 296.646L211.497 296.646L216.263 287.013L227.112 287.013L236.744 292.184L248.505 282.653L258.036 287.013L276.693 282.653Z" fill="url(#paint52_linear)" fill-opacity="0.4"/>
<path d="M235.122 283.262L245.971 297.254L169.927 297.254L174.692 287.622L185.541 287.622L195.173 292.793L206.935 283.262L216.466 287.622L235.122 283.262Z" fill="url(#paint53_linear)" fill-opacity="0.4"/>
<path d="M283.689 291.778L298.897 305.771L222.853 305.771L227.619 296.138L238.468 296.138L248.911 287.419L264.12 287.419L268.885 291.778L283.689 291.778Z" fill="url(#paint54_linear)" fill-opacity="0.4"/>
<path d="M210.281 285.29L225.49 299.282L149.446 299.282L154.211 289.649L165.06 289.649L175.503 280.93L190.712 280.93L195.478 285.29L210.281 285.29Z" fill="url(#paint55_linear)" fill-opacity="0.4"/>
<path d="M174.997 291.778L190.206 305.771L114.162 305.771L118.927 296.138L129.776 296.138L140.219 287.419L155.428 287.419L160.194 291.778L174.997 291.778Z" fill="url(#paint56_linear)" fill-opacity="0.4"/>
<path d="M223.766 282.248L234.615 296.24L158.571 296.24L163.336 286.607L174.185 286.607L183.817 291.778L195.579 282.248L205.11 286.607L223.766 282.248Z" fill="url(#paint57_linear)"/>
<path d="M179.357 287.52L190.206 301.512L114.162 301.512L118.927 291.88L129.776 291.88L139.408 297.051L151.17 287.52L160.701 291.88L179.357 287.52Z" fill="url(#paint58_linear)" fill-opacity="0.4"/>
<path d="M230.762 291.372L245.971 305.365L169.927 305.365L174.692 295.732L185.541 295.732L195.984 287.013L211.193 287.013L215.959 291.372L230.762 291.372Z" fill="url(#paint59_linear)" fill-opacity="0.4"/>
<path fill-rule="evenodd" clip-rule="evenodd" d="M156.195 164.124C150.361 171.394 145.563 172.324 139.16 169.874C139.071 170.224 138.985 170.576 138.903 170.927C138.854 171.061 138.805 171.195 138.755 171.327C143.537 173.341 142.622 174.872 139.923 176.43C144.4 176.171 143.664 178.845 142.769 182.096C142.489 183.113 142.193 184.187 142.037 185.245C139.24 192.285 135.867 195.122 131.03 195.689C129.8 196.563 128.365 197.155 126.897 197.76C122.496 199.574 117.797 201.512 117.424 211.547C117.821 214.953 121.298 224.874 123.048 229.395L130.191 232.427L108.773 239.176C107.732 229.93 106.774 222.622 105.347 214.092C104.543 213.5 103.751 212.92 102.962 212.345C99.5862 211.509 95.998 210.652 91.5642 209.621C90.5262 213.239 87.3241 213.312 80.928 210.7C78.6516 215.446 75.3909 213.702 70.1186 206.67C67.9861 205.634 67.1754 204.639 67.6591 203.578C58.2159 194.879 57.5512 190.066 65.8089 185.059C51.5725 190.444 49.4075 188.494 51.0463 180.701C32.8993 189.203 33.5725 185.448 34.5052 180.246C34.6915 179.207 34.888 178.111 34.9472 177.043C37.8704 167.136 42.572 164.914 50.8469 165.289C50.9156 164.806 50.9699 164.32 50.9964 163.84C51.5703 161.896 52.2127 160.247 52.9371 158.856C48.0162 159.778 48.5182 156.978 49.1327 153.55C49.319 152.512 49.5156 151.415 49.5747 150.347C53.2872 137.766 59.8684 137.579 72.9947 139.365C70.7405 133.895 72.758 132.167 78.9911 132.045C69.6254 121.38 74.7037 119.648 81.7556 117.244C83.0001 116.819 84.306 116.374 85.6049 115.855C92.6587 115.185 96.935 115.508 98.4057 119.566C100.11 117.354 104.228 117.965 111.571 120.587C124.418 122.901 125.285 125.193 115.152 130.232C116.077 130.963 116.591 131.869 116.692 133.028C124.327 135.015 126.718 136.48 126.133 137.757C133.428 139.604 132.005 141.713 128.929 144.958C145.797 145.226 147.328 147.797 142.688 154.63C162.704 153.65 160.656 156.869 157.819 161.328C157.253 162.218 156.655 163.158 156.195 164.124ZM91.8985 204.407C91.9619 205.489 91.9711 206.454 91.9208 207.309C92.8522 207.464 94.0343 207.649 95.6841 207.903C95.5451 207.744 95.4141 207.601 95.2905 207.467L95.2899 207.466C94.8873 207.027 94.5628 206.674 94.2915 206.102C93.5188 205.553 92.7232 204.99 91.8985 204.407ZM124.09 195.346C122.152 195.035 120.035 194.583 117.714 194.048C118.488 196.551 118.494 198.248 117.72 199.322C119.042 198.21 120.765 197.059 124.09 195.346ZM116.825 200.119C116.113 200.534 115.142 200.761 113.91 200.836C114.102 201.31 114.307 201.813 114.525 202.348C114.979 201.919 115.377 201.527 115.753 201.157C116.121 200.795 116.468 200.453 116.825 200.119ZM97.7388 204.934C101.239 205.103 102.684 203.471 103.606 199.78C103.737 199.802 103.867 199.824 103.996 199.846C104.518 201.632 104.854 203.934 104.783 207.832C103.334 206.912 101.796 206.522 100.538 206.203C99.5989 205.965 98.8154 205.766 98.3415 205.415C98.138 205.265 97.9368 205.104 97.7388 204.934Z" fill="#FFC107"/>
<path d="M99.5415 209.484C99.7226 199.521 97.2456 199.984 95.8097 192.851L104.871 189.995L104.914 190.23C105.793 195.044 105.929 195.788 109.284 204C109.738 203.571 110.136 203.179 110.512 202.809C113.311 200.051 114.867 198.519 129.102 192.171C128.089 196.76 124.956 198.051 121.655 199.412C117.255 201.226 112.556 203.164 112.182 213.199C112.58 216.605 116.056 226.526 117.806 231.047L124.95 234.079L103.531 240.827C102.491 231.581 101.533 224.274 100.106 215.744C99.3014 215.152 98.5096 214.572 97.7212 213.996C93.1414 212.863 88.1716 211.69 81.23 210.098L81.6375 207.913L81.7781 207.946C84.6642 208.629 85.1097 208.735 90.4429 209.555C90.3036 209.395 90.1725 209.253 90.0487 209.118C89.6461 208.679 89.3215 208.326 89.0502 207.754C85.7861 205.435 82.1147 202.857 77.5602 199.681L78.7658 197.813C78.8117 197.846 78.8569 197.877 78.9015 197.909C81.6856 199.876 82.1154 200.179 87.4173 203.398C87.3281 203.184 87.2414 202.99 87.1596 202.806C86.5495 201.438 86.2107 200.678 87.1287 196.958C89.2306 198.968 88.9733 199.742 88.7022 200.558C88.3408 201.645 90.5522 205.182 93.1002 207.067C94.2087 207.887 97.0109 207.876 99.5415 209.484Z" fill="#1A1A1A"/>
<mask id="mask0" style="mask-type:alpha" maskUnits="userSpaceOnUse" x="77" y="182" width="64" height="63">
<path d="M99.5415 209.484C99.7226 199.521 97.2456 199.984 95.8097 192.851L104.871 189.995L104.914 190.23C105.793 195.044 105.929 195.788 109.284 204C109.738 203.571 110.136 203.179 110.512 202.809C113.311 200.051 114.867 198.519 129.102 192.171C128.089 196.76 124.956 198.051 121.655 199.412C117.255 201.226 112.556 203.164 112.182 213.199C112.58 216.605 116.056 226.526 117.806 231.047L124.95 234.079L103.531 240.827C102.491 231.581 101.533 224.274 100.106 215.744C99.3014 215.152 98.5096 214.572 97.7212 213.996C93.1414 212.863 88.1716 211.69 81.23 210.098L81.6375 207.913L81.7781 207.946C84.6642 208.629 85.1097 208.735 90.4429 209.555C90.3036 209.395 90.1725 209.253 90.0487 209.118C89.6461 208.679 89.3215 208.326 89.0502 207.754C85.7861 205.435 82.1147 202.857 77.5602 199.681L78.7658 197.813C78.8117 197.846 78.8569 197.877 78.9015 197.909C81.6856 199.876 82.1154 200.179 87.4173 203.398C87.3281 203.184 87.2414 202.99 87.1596 202.806C86.5495 201.438 86.2107 200.678 87.1287 196.958C89.2306 198.968 88.9733 199.742 88.7022 200.558C88.3408 201.645 90.5522 205.182 93.1002 207.067C94.2087 207.887 97.0109 207.876 99.5415 209.484Z" fill="#1A1A1A"/>
</mask>
<g mask="url(#mask0)">
<path fill-rule="evenodd" clip-rule="evenodd" d="M99.0547 213.228C99.0421 213.204 99.0239 213.176 98.9977 213.148C98.984 213.133 98.969 213.119 98.9527 213.105L98.8778 213.3C98.8789 213.326 98.8781 213.352 98.8761 213.375C98.8768 213.375 98.8775 213.375 98.8782 213.374C98.9553 213.344 99.0096 213.298 99.0404 213.267C99.0471 213.26 99.0527 213.254 99.0572 213.249C99.0565 213.243 99.0557 213.235 99.0547 213.228ZM99.0589 213.28C99.0269 213.339 98.9857 213.406 98.9379 213.463C98.9108 213.495 98.8754 213.534 98.8311 213.571C98.8181 213.607 98.8048 213.637 98.7956 213.658C98.791 213.668 98.7851 213.681 98.7812 213.689C98.7797 213.693 98.7785 213.695 98.7777 213.697C98.7758 213.701 98.7747 213.704 98.7742 213.705L98.7354 213.806L98.7327 213.804C98.7327 213.804 98.7327 213.804 98.7327 213.804C98.7227 213.823 98.71 213.843 98.694 213.863C98.6923 213.865 98.6905 213.867 98.6888 213.869C98.677 213.873 98.6654 213.877 98.6541 213.88L98.6396 213.918C98.6555 213.904 98.6724 213.888 98.6888 213.869C98.7302 213.854 98.7744 213.83 98.8176 213.794C98.8164 213.795 98.814 213.797 98.8051 213.805C98.8045 213.806 98.8037 213.807 98.8029 213.807C98.7954 213.814 98.7816 213.827 98.767 213.839C98.7361 213.866 98.6924 213.9 98.6343 213.931L98.6248 213.956L98.6158 213.952C98.6107 213.95 98.6067 213.949 98.6024 213.947C98.5933 213.952 98.5854 213.955 98.5806 213.958L98.5747 213.96C98.5734 213.961 98.5729 213.961 98.5729 213.961L98.5756 213.96C98.5772 213.959 98.5797 213.958 98.5829 213.956C98.587 213.954 98.5927 213.951 98.5995 213.946C98.5978 213.946 98.5961 213.945 98.5943 213.944C98.588 213.942 98.5801 213.939 98.5681 213.935C98.5498 213.928 98.5244 213.919 98.4964 213.906L98.4822 213.901C98.4644 213.894 98.4492 213.887 98.4423 213.884C98.4375 213.882 98.4296 213.878 98.4259 213.876C98.425 213.876 98.4244 213.876 98.4241 213.875C98.4199 213.874 98.4182 213.873 98.4182 213.873C98.4182 213.873 98.4213 213.874 98.4261 213.876L98.4265 213.876C98.4289 213.877 98.436 213.879 98.4469 213.882C98.3492 213.829 98.2848 213.754 98.2441 213.684C98.232 213.681 98.2216 213.677 98.2129 213.674C98.212 213.673 98.2111 213.673 98.2101 213.673C98.1872 213.664 98.1472 213.649 98.1245 213.639C98.1168 213.636 98.1111 213.634 98.1087 213.633C98.1047 213.632 98.1007 213.63 98.0968 213.628C98.1316 213.657 98.1684 213.677 98.2034 213.69C98.1595 213.673 98.1196 213.651 98.0844 213.623C98.0144 213.591 97.9558 213.544 97.9109 213.488L97.8673 213.471L97.8787 213.441C97.8063 213.322 97.7879 213.172 97.842 213.032C97.9151 212.842 98.0987 212.728 98.2909 212.734C98.295 212.726 98.3 212.717 98.3058 212.707C98.3116 212.697 98.3248 212.675 98.3447 212.651C98.3449 212.65 98.3452 212.65 98.3455 212.65C98.3543 212.638 98.4196 212.555 98.5386 212.508C98.6175 212.477 98.7474 212.453 98.8887 212.512C99.023 212.568 99.0918 212.669 99.1221 212.728C99.172 212.824 99.1738 212.913 99.1742 212.928C99.1742 212.928 99.1742 212.929 99.1742 212.929C99.1755 212.976 99.1693 213.014 99.168 213.021C99.1679 213.022 99.1679 213.022 99.1678 213.022C99.1615 213.061 99.1495 213.104 99.1446 213.121C99.1313 213.168 99.1093 213.24 99.0912 213.287C99.0891 213.292 99.0868 213.298 99.0847 213.303C99.0848 213.303 99.0849 213.304 99.085 213.304L99.0851 213.305L99.0865 213.314C99.0865 213.314 99.0866 213.314 99.0866 213.315C99.0864 213.313 99.0856 213.309 99.0842 213.304C99.0799 213.314 99.0761 213.322 99.0751 213.324C99.075 213.325 99.075 213.325 99.0749 213.325C99.0717 213.332 99.0709 213.334 99.0701 213.335C99.0692 213.337 99.0685 213.339 99.0652 213.346C99.0584 213.361 99.0525 213.374 99.048 213.386C99.0454 213.392 99.0444 213.395 99.0444 213.395C99.0444 213.395 99.0464 213.389 99.0489 213.379L99.049 213.379C99.0507 213.372 99.0592 213.337 99.059 213.288C99.059 213.285 99.059 213.283 99.0589 213.28ZM98.4994 213.715L98.547 213.733L98.4994 213.715ZM98.5259 212.798C98.5297 212.799 98.5301 212.799 98.5264 212.798C98.5262 212.798 98.526 212.798 98.5259 212.798ZM99.1239 213.148C99.124 213.148 99.1242 213.148 99.1243 213.147L99.1242 213.148C99.1241 213.148 99.124 213.148 99.1239 213.148Z" fill="white" fill-opacity="0.8"/>
<path fill-rule="evenodd" clip-rule="evenodd" d="M103.899 201.218C103.887 201.194 103.869 201.166 103.842 201.137C103.829 201.122 103.814 201.108 103.797 201.095L103.722 201.289C103.724 201.316 103.723 201.341 103.721 201.365C103.722 201.364 103.722 201.364 103.723 201.364C103.8 201.334 103.854 201.288 103.885 201.257C103.892 201.25 103.897 201.244 103.902 201.239C103.901 201.232 103.9 201.225 103.899 201.218ZM103.904 201.269C103.872 201.328 103.83 201.395 103.783 201.452C103.756 201.484 103.72 201.523 103.676 201.56C103.663 201.596 103.649 201.627 103.64 201.647C103.636 201.658 103.63 201.67 103.626 201.679C103.624 201.682 103.623 201.685 103.622 201.687C103.621 201.691 103.619 201.693 103.619 201.695L103.58 201.795L103.577 201.794C103.577 201.794 103.577 201.794 103.577 201.794C103.567 201.813 103.555 201.832 103.539 201.852C103.537 201.854 103.535 201.856 103.534 201.858C103.522 201.863 103.51 201.866 103.499 201.869L103.484 201.907C103.5 201.894 103.517 201.878 103.534 201.858C103.575 201.843 103.619 201.82 103.662 201.784C103.661 201.785 103.659 201.787 103.65 201.795C103.649 201.796 103.648 201.796 103.648 201.797C103.64 201.804 103.626 201.816 103.612 201.829C103.581 201.855 103.537 201.889 103.479 201.921L103.47 201.945L103.461 201.942C103.455 201.94 103.451 201.938 103.447 201.937C103.438 201.941 103.43 201.945 103.425 201.947L103.419 201.95C103.418 201.95 103.418 201.95 103.418 201.95L103.42 201.949C103.422 201.948 103.424 201.947 103.428 201.945C103.432 201.943 103.437 201.94 103.444 201.936C103.443 201.935 103.441 201.935 103.439 201.934C103.433 201.932 103.425 201.929 103.413 201.924C103.395 201.918 103.369 201.908 103.341 201.896L103.327 201.89C103.309 201.884 103.294 201.877 103.287 201.873C103.282 201.871 103.274 201.868 103.271 201.866C103.27 201.865 103.269 201.865 103.269 201.865C103.265 201.863 103.263 201.862 103.263 201.862C103.263 201.862 103.266 201.864 103.271 201.865L103.271 201.865C103.274 201.866 103.281 201.869 103.292 201.872C103.194 201.818 103.13 201.743 103.089 201.674C103.077 201.67 103.066 201.666 103.058 201.663C103.057 201.663 103.056 201.663 103.055 201.662C103.032 201.654 102.992 201.638 102.969 201.629C102.962 201.626 102.956 201.624 102.953 201.623C102.949 201.621 102.945 201.62 102.942 201.618C102.976 201.646 103.013 201.666 103.048 201.68C103.004 201.663 102.964 201.64 102.929 201.613C102.859 201.581 102.801 201.534 102.756 201.477L102.712 201.46L102.723 201.431C102.651 201.312 102.633 201.161 102.687 201.021C102.76 200.832 102.943 200.717 103.136 200.723C103.14 200.716 103.145 200.706 103.151 200.696C103.156 200.687 103.17 200.665 103.189 200.64C103.19 200.64 103.19 200.64 103.19 200.639C103.199 200.628 103.264 200.544 103.383 200.497C103.462 200.467 103.592 200.442 103.733 200.502C103.868 200.558 103.937 200.658 103.967 200.717C104.017 200.813 104.019 200.902 104.019 200.917C104.019 200.918 104.019 200.918 104.019 200.919C104.02 200.965 104.014 201.003 104.013 201.011C104.013 201.011 104.013 201.012 104.013 201.012C104.006 201.051 103.994 201.093 103.989 201.111C103.976 201.158 103.954 201.229 103.936 201.276C103.934 201.282 103.932 201.287 103.929 201.292C103.93 201.293 103.93 201.293 103.93 201.294L103.93 201.294L103.931 201.303C103.931 201.304 103.931 201.304 103.931 201.304C103.931 201.303 103.93 201.299 103.929 201.293C103.925 201.304 103.921 201.312 103.92 201.314C103.92 201.314 103.92 201.314 103.92 201.314C103.916 201.321 103.916 201.323 103.915 201.325C103.914 201.327 103.913 201.328 103.91 201.336C103.903 201.35 103.897 201.364 103.893 201.375C103.89 201.381 103.889 201.384 103.889 201.384C103.889 201.384 103.891 201.379 103.894 201.368L103.894 201.368C103.895 201.361 103.904 201.326 103.904 201.277C103.904 201.275 103.904 201.272 103.904 201.269ZM103.344 201.704L103.392 201.722L103.344 201.704ZM103.371 200.787C103.374 200.788 103.375 200.789 103.371 200.787C103.371 200.787 103.371 200.787 103.371 200.787ZM103.969 201.138C103.969 201.137 103.969 201.137 103.969 201.137L103.969 201.137C103.969 201.137 103.969 201.137 103.969 201.138Z" fill="white" fill-opacity="0.8"/>
<path fill-rule="evenodd" clip-rule="evenodd" d="M118.464 197.225C118.451 197.201 118.433 197.173 118.407 197.145C118.393 197.13 118.378 197.116 118.362 197.103L118.287 197.297C118.288 197.323 118.287 197.349 118.285 197.372C118.286 197.372 118.286 197.372 118.287 197.371C118.364 197.341 118.419 197.295 118.449 197.264C118.456 197.257 118.462 197.251 118.466 197.246C118.465 197.24 118.465 197.233 118.464 197.225ZM118.468 197.277C118.436 197.336 118.395 197.403 118.347 197.46C118.32 197.492 118.284 197.531 118.24 197.568C118.227 197.604 118.214 197.634 118.204 197.655C118.2 197.665 118.194 197.678 118.19 197.687C118.189 197.69 118.187 197.692 118.187 197.694C118.185 197.698 118.184 197.701 118.183 197.702L118.144 197.803L118.142 197.802C118.142 197.802 118.142 197.802 118.142 197.802C118.132 197.82 118.119 197.84 118.103 197.86C118.101 197.862 118.099 197.864 118.098 197.866C118.086 197.87 118.074 197.874 118.063 197.877L118.048 197.915C118.064 197.902 118.081 197.885 118.098 197.866C118.139 197.851 118.183 197.827 118.227 197.791C118.225 197.792 118.223 197.794 118.214 197.803C118.213 197.803 118.213 197.804 118.212 197.805C118.204 197.811 118.191 197.824 118.176 197.836C118.145 197.863 118.101 197.897 118.043 197.928L118.034 197.953L118.025 197.95C118.02 197.948 118.016 197.946 118.011 197.944C118.002 197.949 117.994 197.952 117.99 197.955L117.984 197.957C117.982 197.958 117.982 197.958 117.982 197.958L117.985 197.957C117.986 197.956 117.989 197.955 117.992 197.953C117.996 197.951 118.002 197.948 118.008 197.943C118.007 197.943 118.005 197.942 118.003 197.942C117.997 197.939 117.989 197.936 117.977 197.932C117.959 197.925 117.933 197.916 117.905 197.903L117.891 197.898C117.873 197.891 117.858 197.884 117.851 197.881C117.846 197.879 117.838 197.875 117.835 197.873C117.834 197.873 117.833 197.873 117.833 197.873C117.829 197.871 117.827 197.87 117.827 197.87C117.827 197.87 117.83 197.871 117.835 197.873L117.835 197.873C117.838 197.874 117.845 197.876 117.856 197.879C117.758 197.826 117.694 197.751 117.653 197.681C117.641 197.678 117.631 197.674 117.622 197.671C117.621 197.671 117.62 197.67 117.619 197.67C117.596 197.662 117.556 197.646 117.533 197.637C117.526 197.633 117.52 197.631 117.518 197.63C117.514 197.629 117.51 197.627 117.506 197.625C117.541 197.654 117.577 197.674 117.612 197.687C117.568 197.67 117.529 197.648 117.493 197.62C117.423 197.589 117.365 197.542 117.32 197.485L117.276 197.468L117.288 197.438C117.215 197.319 117.197 197.169 117.251 197.029C117.324 196.839 117.508 196.725 117.7 196.731C117.704 196.723 117.709 196.714 117.715 196.704C117.721 196.694 117.734 196.673 117.754 196.648C117.754 196.647 117.754 196.647 117.754 196.647C117.763 196.635 117.829 196.552 117.947 196.505C118.026 196.474 118.156 196.45 118.298 196.509C118.432 196.566 118.501 196.666 118.531 196.725C118.581 196.821 118.583 196.91 118.583 196.925C118.583 196.925 118.583 196.926 118.583 196.926C118.584 196.973 118.578 197.011 118.577 197.019C118.577 197.019 118.577 197.019 118.577 197.019C118.57 197.059 118.558 197.101 118.554 197.118C118.54 197.165 118.518 197.237 118.5 197.284C118.498 197.289 118.496 197.295 118.494 197.3C118.494 197.3 118.494 197.301 118.494 197.301L118.494 197.302L118.495 197.311C118.495 197.311 118.496 197.311 118.496 197.312C118.495 197.31 118.495 197.306 118.493 197.301C118.489 197.311 118.485 197.319 118.484 197.321C118.484 197.322 118.484 197.322 118.484 197.322C118.481 197.329 118.48 197.331 118.479 197.332C118.478 197.334 118.477 197.336 118.474 197.343C118.467 197.358 118.461 197.371 118.457 197.383C118.454 197.389 118.453 197.392 118.453 197.392C118.453 197.392 118.455 197.386 118.458 197.376L118.458 197.376C118.46 197.369 118.468 197.334 118.468 197.285C118.468 197.282 118.468 197.28 118.468 197.277ZM117.908 197.712L117.956 197.73L117.908 197.712ZM117.935 196.795C117.939 196.796 117.939 196.796 117.935 196.795C117.935 196.795 117.935 196.795 117.935 196.795ZM118.533 197.145C118.533 197.145 118.533 197.145 118.533 197.145L118.533 197.145C118.533 197.145 118.533 197.145 118.533 197.145Z" fill="white" fill-opacity="0.8"/>
<path fill-rule="evenodd" clip-rule="evenodd" d="M92.3346 226.224C92.322 226.201 92.3038 226.172 92.2776 226.144C92.2639 226.129 92.2489 226.115 92.2326 226.102L92.1577 226.296C92.1588 226.322 92.158 226.348 92.1561 226.371C92.1567 226.371 92.1574 226.371 92.1581 226.37C92.2352 226.34 92.2895 226.294 92.3203 226.263C92.327 226.256 92.3326 226.25 92.3371 226.245C92.3364 226.239 92.3356 226.232 92.3346 226.224ZM92.3388 226.276C92.3068 226.335 92.2656 226.402 92.2178 226.459C92.1907 226.491 92.1553 226.53 92.111 226.567C92.098 226.603 92.0847 226.633 92.0755 226.654C92.0709 226.664 92.065 226.677 92.0611 226.686C92.0596 226.689 92.0584 226.691 92.0576 226.693C92.0557 226.697 92.0546 226.7 92.0541 226.701L92.0153 226.802L92.0126 226.801C92.0126 226.801 92.0126 226.801 92.0126 226.801C92.0026 226.819 91.9899 226.839 91.9739 226.859C91.9722 226.861 91.9704 226.863 91.9687 226.865C91.9569 226.869 91.9453 226.873 91.934 226.876L91.9195 226.914C91.9354 226.901 91.9523 226.884 91.9687 226.865C92.0101 226.85 92.0543 226.826 92.0975 226.79C92.0963 226.791 92.0939 226.793 92.085 226.802C92.0844 226.802 92.0836 226.803 92.0828 226.804C92.0753 226.81 92.0615 226.823 92.0469 226.836C92.016 226.862 91.9723 226.896 91.9142 226.927L91.9047 226.952L91.8957 226.949C91.8906 226.947 91.8866 226.945 91.8823 226.943C91.8732 226.948 91.8653 226.951 91.8605 226.954L91.8546 226.956C91.8533 226.957 91.8529 226.957 91.8529 226.957L91.8555 226.956C91.8571 226.955 91.8596 226.954 91.8628 226.952C91.8669 226.95 91.8726 226.947 91.8794 226.942C91.8777 226.942 91.876 226.941 91.8742 226.941C91.8679 226.938 91.86 226.935 91.848 226.931C91.8297 226.924 91.8043 226.915 91.7763 226.902L91.7621 226.897C91.7443 226.89 91.7291 226.883 91.7222 226.88C91.7174 226.878 91.7095 226.874 91.7058 226.872C91.7049 226.872 91.7043 226.872 91.704 226.872C91.6999 226.87 91.6981 226.869 91.6981 226.869C91.6981 226.869 91.7013 226.87 91.706 226.872L91.7064 226.872C91.7088 226.873 91.7159 226.876 91.7268 226.878C91.6291 226.825 91.5648 226.75 91.524 226.681C91.5119 226.677 91.5015 226.673 91.4928 226.67C91.4919 226.67 91.491 226.669 91.49 226.669C91.4671 226.661 91.4271 226.645 91.4044 226.636C91.3967 226.632 91.391 226.63 91.3886 226.629C91.3846 226.628 91.3806 226.626 91.3767 226.625C91.4115 226.653 91.4483 226.673 91.4833 226.686C91.4394 226.669 91.3995 226.647 91.3643 226.619C91.2943 226.588 91.2357 226.541 91.1909 226.484L91.1472 226.467L91.1586 226.437C91.0862 226.318 91.0678 226.168 91.1219 226.028C91.195 225.838 91.3786 225.724 91.5708 225.73C91.5749 225.722 91.5799 225.713 91.5857 225.703C91.5915 225.693 91.6047 225.672 91.6246 225.647C91.6248 225.647 91.6251 225.646 91.6254 225.646C91.6342 225.634 91.6995 225.551 91.8185 225.504C91.8974 225.473 92.0273 225.449 92.1686 225.508C92.3029 225.565 92.3717 225.665 92.402 225.724C92.4519 225.82 92.4537 225.909 92.4541 225.924C92.4541 225.924 92.4541 225.925 92.4541 225.925C92.4554 225.972 92.4492 226.01 92.4479 226.018C92.4478 226.018 92.4478 226.018 92.4477 226.018C92.4414 226.058 92.4294 226.1 92.4245 226.117C92.4113 226.164 92.3892 226.236 92.3711 226.283C92.369 226.288 92.3667 226.294 92.3646 226.299C92.3647 226.299 92.3648 226.3 92.3649 226.3L92.365 226.301L92.3664 226.31C92.3664 226.31 92.3665 226.31 92.3665 226.311C92.3663 226.309 92.3655 226.305 92.3641 226.3C92.3598 226.31 92.356 226.318 92.355 226.32C92.355 226.321 92.3549 226.321 92.3548 226.321C92.3516 226.328 92.3508 226.33 92.35 226.332C92.3491 226.333 92.3484 226.335 92.3451 226.342C92.3383 226.357 92.3324 226.371 92.3279 226.382C92.3253 226.388 92.3243 226.391 92.3243 226.391C92.3243 226.391 92.3263 226.385 92.3288 226.375L92.3289 226.375C92.3306 226.368 92.3391 226.333 92.339 226.284C92.3389 226.281 92.3389 226.279 92.3388 226.276ZM91.7793 226.711L91.8269 226.729L91.7793 226.711ZM91.8058 225.794C91.8096 225.795 91.81 225.795 91.8063 225.794C91.8061 225.794 91.806 225.794 91.8058 225.794ZM92.4038 226.144C92.404 226.144 92.4041 226.144 92.4042 226.144L92.4041 226.144C92.404 226.144 92.4039 226.144 92.4038 226.144Z" fill="white" fill-opacity="0.8"/>
<path fill-rule="evenodd" clip-rule="evenodd" d="M80.9997 216.301C80.9872 216.278 80.969 216.25 80.9428 216.221C80.9291 216.206 80.9141 216.192 80.8978 216.179L80.8228 216.373C80.8239 216.4 80.8232 216.425 80.8212 216.449C80.8219 216.448 80.8226 216.448 80.8233 216.448C80.9003 216.418 80.9546 216.372 80.9855 216.341C80.9922 216.334 80.9978 216.328 81.0022 216.323C81.0016 216.316 81.0008 216.309 80.9997 216.301ZM81.004 216.353C80.972 216.412 80.9308 216.479 80.883 216.536C80.8559 216.568 80.8205 216.607 80.7762 216.644C80.7631 216.68 80.7498 216.711 80.7406 216.731C80.736 216.742 80.7302 216.754 80.7263 216.763C80.7248 216.766 80.7236 216.769 80.7228 216.771C80.7208 216.775 80.7197 216.777 80.7192 216.779L80.6805 216.879L80.6778 216.878C80.6778 216.878 80.6778 216.878 80.6778 216.878C80.6678 216.897 80.655 216.916 80.6391 216.936C80.6373 216.938 80.6356 216.94 80.6339 216.942C80.622 216.947 80.6104 216.95 80.5992 216.953L80.5846 216.991C80.6006 216.978 80.6175 216.962 80.6339 216.942C80.6752 216.927 80.7195 216.904 80.7627 216.868C80.7615 216.869 80.7591 216.871 80.7502 216.879C80.7495 216.88 80.7488 216.88 80.748 216.881C80.7404 216.888 80.7267 216.9 80.7121 216.913C80.6811 216.939 80.6374 216.973 80.5794 217.005L80.5698 217.029L80.5609 217.026C80.5558 217.024 80.5518 217.022 80.5474 217.021C80.5384 217.025 80.5304 217.029 80.5257 217.031L80.5198 217.034C80.5185 217.034 80.518 217.034 80.518 217.034L80.5207 217.033C80.5223 217.032 80.5248 217.031 80.5279 217.029C80.5321 217.027 80.5377 217.024 80.5445 217.02C80.5429 217.019 80.5412 217.019 80.5393 217.018C80.5331 217.016 80.5251 217.013 80.5131 217.008C80.4949 217.002 80.4695 216.992 80.4415 216.98L80.4272 216.974C80.4094 216.968 80.3943 216.961 80.3874 216.957C80.3826 216.955 80.3746 216.952 80.371 216.95C80.3701 216.949 80.3694 216.949 80.3692 216.949C80.365 216.947 80.3633 216.946 80.3633 216.946C80.3633 216.946 80.3664 216.948 80.3712 216.949L80.3715 216.949C80.3739 216.95 80.381 216.953 80.392 216.956C80.2943 216.902 80.2299 216.827 80.1892 216.758C80.1771 216.754 80.1666 216.75 80.158 216.747C80.1571 216.747 80.1561 216.747 80.1552 216.746C80.1322 216.738 80.0923 216.722 80.0696 216.713C80.0619 216.71 80.0561 216.708 80.0537 216.707C80.0497 216.705 80.0458 216.704 80.0419 216.702C80.0766 216.73 80.1134 216.75 80.1484 216.764C80.1046 216.747 80.0647 216.724 80.0294 216.697C79.9595 216.665 79.9009 216.618 79.856 216.561L79.8123 216.544L79.8238 216.515C79.7513 216.396 79.733 216.245 79.787 216.105C79.8601 215.916 80.0438 215.801 80.236 215.807C80.24 215.8 80.2451 215.79 80.2509 215.78C80.2567 215.771 80.2699 215.749 80.2898 215.724C80.29 215.724 80.2902 215.724 80.2906 215.723C80.2994 215.712 80.3647 215.628 80.4836 215.581C80.5625 215.551 80.6924 215.526 80.8337 215.586C80.9681 215.642 81.0369 215.742 81.0672 215.801C81.117 215.897 81.1189 215.986 81.1192 216.001C81.1192 216.002 81.1192 216.002 81.1193 216.003C81.1206 216.049 81.1143 216.087 81.113 216.095C81.113 216.095 81.1129 216.096 81.1129 216.096C81.1065 216.135 81.0946 216.177 81.0897 216.195C81.0764 216.242 81.0544 216.313 81.0362 216.36C81.0342 216.366 81.0319 216.371 81.0298 216.376C81.0299 216.377 81.03 216.377 81.03 216.378L81.0301 216.378L81.0315 216.387C81.0316 216.388 81.0316 216.388 81.0317 216.388C81.0314 216.387 81.0306 216.383 81.0293 216.377C81.0249 216.387 81.0212 216.396 81.0202 216.398C81.0201 216.398 81.02 216.398 81.02 216.398C81.0168 216.405 81.0159 216.407 81.0151 216.409C81.0143 216.411 81.0135 216.412 81.0103 216.42C81.0035 216.434 80.9975 216.448 80.993 216.459C80.9904 216.465 80.9894 216.468 80.9894 216.468C80.9895 216.468 80.9915 216.463 80.994 216.452L80.994 216.452C80.9957 216.445 81.0043 216.41 81.0041 216.361C81.0041 216.359 81.0041 216.356 81.004 216.353ZM80.4445 216.788L80.4921 216.806L80.4445 216.788ZM80.4709 215.871C80.4747 215.872 80.4752 215.873 80.4715 215.871C80.4713 215.871 80.4711 215.871 80.4709 215.871ZM81.069 216.222C81.0691 216.221 81.0692 216.221 81.0693 216.221L81.0693 216.221C81.0692 216.221 81.0691 216.221 81.069 216.222Z" fill="white" fill-opacity="0.8"/>
<path fill-rule="evenodd" clip-rule="evenodd" d="M111.06 223.623C111.048 223.599 111.03 223.571 111.003 223.542C110.99 223.527 110.975 223.513 110.958 223.5L110.883 223.695C110.884 223.721 110.884 223.746 110.882 223.77C110.882 223.77 110.883 223.769 110.884 223.769C110.961 223.739 111.015 223.693 111.046 223.662C111.053 223.655 111.058 223.649 111.063 223.644C111.062 223.637 111.061 223.63 111.06 223.623ZM111.065 223.674C111.033 223.733 110.991 223.801 110.944 223.858C110.916 223.89 110.881 223.928 110.837 223.966C110.824 224.002 110.81 224.032 110.801 224.053C110.797 224.063 110.791 224.076 110.787 224.084C110.785 224.088 110.784 224.09 110.783 224.092C110.781 224.096 110.78 224.099 110.78 224.1L110.741 224.2L110.738 224.199C110.738 224.199 110.738 224.199 110.738 224.199C110.728 224.218 110.716 224.238 110.7 224.257C110.698 224.26 110.696 224.262 110.694 224.264C110.683 224.268 110.671 224.272 110.66 224.275L110.645 224.312C110.661 224.299 110.678 224.283 110.694 224.264C110.736 224.249 110.78 224.225 110.823 224.189C110.822 224.19 110.82 224.192 110.811 224.2C110.81 224.201 110.809 224.202 110.809 224.202C110.801 224.209 110.787 224.222 110.773 224.234C110.742 224.261 110.698 224.295 110.64 224.326L110.63 224.351L110.621 224.347C110.616 224.345 110.612 224.344 110.608 224.342C110.599 224.346 110.591 224.35 110.586 224.352L110.58 224.355C110.579 224.356 110.579 224.356 110.579 224.356L110.581 224.354C110.583 224.354 110.585 224.352 110.588 224.351C110.593 224.348 110.598 224.345 110.605 224.341C110.603 224.341 110.602 224.34 110.6 224.339C110.594 224.337 110.586 224.334 110.574 224.33C110.555 224.323 110.53 224.313 110.502 224.301L110.488 224.296C110.47 224.289 110.455 224.282 110.448 224.279C110.443 224.277 110.435 224.273 110.432 224.271C110.431 224.271 110.43 224.27 110.43 224.27C110.426 224.268 110.424 224.268 110.424 224.268C110.424 224.268 110.427 224.269 110.432 224.271L110.432 224.271C110.434 224.272 110.442 224.274 110.453 224.277C110.355 224.224 110.29 224.149 110.25 224.079C110.238 224.075 110.227 224.072 110.219 224.069C110.218 224.068 110.217 224.068 110.216 224.068C110.193 224.059 110.153 224.043 110.13 224.034C110.122 224.031 110.117 224.029 110.114 224.028C110.11 224.026 110.106 224.025 110.102 224.023C110.137 224.051 110.174 224.072 110.209 224.085C110.165 224.068 110.125 224.045 110.09 224.018C110.02 223.986 109.961 223.939 109.917 223.882L109.873 223.866L109.884 223.836C109.812 223.717 109.794 223.567 109.848 223.426C109.921 223.237 110.104 223.123 110.297 223.129C110.301 223.121 110.306 223.112 110.311 223.102C110.317 223.092 110.33 223.07 110.35 223.045C110.351 223.045 110.351 223.045 110.351 223.044C110.36 223.033 110.425 222.949 110.544 222.903C110.623 222.872 110.753 222.848 110.894 222.907C111.029 222.963 111.097 223.064 111.128 223.122C111.178 223.219 111.179 223.308 111.18 223.323C111.18 223.323 111.18 223.324 111.18 223.324C111.181 223.37 111.175 223.408 111.174 223.416C111.174 223.417 111.173 223.417 111.173 223.417C111.167 223.456 111.155 223.499 111.15 223.516C111.137 223.563 111.115 223.634 111.097 223.681C111.095 223.687 111.092 223.692 111.09 223.697C111.09 223.698 111.091 223.699 111.091 223.699L111.091 223.7L111.092 223.709C111.092 223.709 111.092 223.709 111.092 223.709C111.092 223.708 111.091 223.704 111.09 223.699C111.085 223.709 111.082 223.717 111.081 223.719C111.081 223.719 111.081 223.719 111.081 223.72C111.077 223.727 111.076 223.728 111.076 223.73C111.075 223.732 111.074 223.734 111.071 223.741C111.064 223.756 111.058 223.769 111.054 223.78C111.051 223.787 111.05 223.79 111.05 223.79C111.05 223.79 111.052 223.784 111.055 223.774L111.055 223.773C111.056 223.766 111.065 223.731 111.065 223.683C111.065 223.68 111.065 223.677 111.065 223.674ZM110.505 224.109L110.553 224.128L110.505 224.109ZM110.531 223.192C110.535 223.193 110.536 223.194 110.532 223.193C110.532 223.192 110.532 223.192 110.531 223.192ZM111.13 223.543C111.13 223.543 111.13 223.542 111.13 223.542L111.13 223.542C111.13 223.543 111.13 223.543 111.13 223.543Z" fill="white" fill-opacity="0.8"/>
<path fill-rule="evenodd" clip-rule="evenodd" d="M109.802 206.116L110.322 206.317L110.293 206.393C110.167 206.719 110.216 207.155 110.354 207.657C110.413 207.871 110.485 208.086 110.558 208.298C110.781 207.887 110.998 207.478 111.198 207.063C111.265 206.924 111.432 206.866 111.571 206.933C111.71 207 111.768 207.167 111.701 207.306C111.442 207.843 111.152 208.374 110.866 208.899C110.859 208.913 110.851 208.927 110.844 208.94C110.88 208.935 110.918 208.928 110.957 208.918C111.008 208.906 111.054 208.892 111.107 208.876C111.136 208.868 111.167 208.859 111.202 208.849C111.294 208.823 111.399 208.796 111.516 208.78C112.227 208.685 112.706 208.653 113.418 208.928C113.562 208.984 113.634 209.145 113.578 209.289C113.523 209.433 113.361 209.504 113.217 209.449C112.635 209.224 112.268 209.243 111.591 209.333C111.512 209.344 111.436 209.363 111.354 209.386C111.331 209.392 111.306 209.4 111.28 209.407C111.22 209.425 111.153 209.445 111.091 209.46C111.065 209.466 111.039 209.472 111.012 209.478C111.061 209.542 111.117 209.605 111.179 209.668C111.266 209.756 111.36 209.84 111.464 209.933L111.476 209.944C111.582 210.039 111.696 210.141 111.805 210.254C111.921 210.374 112.062 210.482 112.222 210.605C112.239 210.618 112.256 210.631 112.274 210.644C112.447 210.778 112.642 210.931 112.796 211.119C112.837 211.168 112.882 211.223 112.92 211.273C112.953 211.315 112.999 211.377 113.025 211.433C113.033 211.448 113.045 211.476 113.052 211.511C113.058 211.535 113.076 211.628 113.018 211.724C112.945 211.846 112.822 211.864 112.764 211.862C112.71 211.861 112.668 211.845 112.651 211.838C112.582 211.81 112.501 211.753 112.421 211.692C112.258 211.569 112.136 211.404 112.04 211.276C112.035 211.268 112.029 211.26 112.023 211.252C111.915 211.107 111.834 211.005 111.736 210.938C111.517 210.786 111.317 210.612 111.131 210.446C111.11 210.428 111.09 210.41 111.07 210.391C110.994 210.324 110.921 210.259 110.848 210.196C110.84 210.31 110.834 210.414 110.835 210.511C110.838 210.672 110.879 210.844 110.928 211.053C110.943 211.116 110.959 211.183 110.975 211.254C111.035 211.527 111.095 211.866 110.995 212.181C110.99 212.197 110.984 212.215 110.977 212.232C110.972 212.244 110.958 212.277 110.933 212.31C110.922 212.325 110.889 212.366 110.831 212.394C110.756 212.432 110.651 212.44 110.557 212.381C110.487 212.337 110.457 212.276 110.448 212.256C110.436 212.229 110.431 212.206 110.428 212.194C110.419 212.152 110.42 212.109 110.42 212.092L110.42 212.092C110.42 212.066 110.421 212.037 110.422 212.01C110.424 211.975 110.427 211.934 110.429 211.896C110.43 211.877 110.432 211.858 110.433 211.842C110.435 211.805 110.436 211.783 110.436 211.772C110.436 211.765 110.436 211.763 110.437 211.765C110.409 211.466 110.318 211.21 110.215 210.919C110.206 210.896 110.198 210.873 110.19 210.85C110.144 210.72 110.097 210.585 110.058 210.44C109.899 210.769 109.75 211.101 109.62 211.436C109.614 211.453 109.607 211.469 109.601 211.486L109.494 211.762L108.973 211.562L109.089 211.261C109.092 211.253 109.095 211.245 109.099 211.237C109.263 210.812 109.425 210.415 109.638 210.03C109.729 209.846 109.823 209.663 109.919 209.481C109.879 209.492 109.839 209.503 109.798 209.515C109.766 209.524 109.732 209.533 109.697 209.543C109.599 209.57 109.49 209.597 109.379 209.611C108.553 209.719 107.833 209.644 107.052 209.343L106.531 209.142C106.499 209.13 106.469 209.118 106.442 209.108C106.43 209.103 106.419 209.099 106.409 209.095L106.366 209.078L106.566 208.557L106.714 208.614C106.766 208.634 106.805 208.646 106.847 208.652C107.114 208.688 107.387 208.683 107.675 208.662C107.804 208.653 107.932 208.641 108.065 208.629C108.081 208.627 108.097 208.626 108.113 208.624C108.261 208.61 108.413 208.597 108.567 208.587C108.648 208.583 108.725 208.568 108.82 208.55C108.83 208.548 108.84 208.546 108.851 208.544C108.528 208.265 108.209 207.983 107.924 207.729C107.494 207.344 107.134 207.012 106.957 206.833C106.914 206.789 106.874 206.746 106.846 206.711C106.846 206.711 106.846 206.711 106.845 206.71C106.837 206.699 106.806 206.661 106.787 206.612C106.782 206.596 106.772 206.566 106.769 206.528C106.767 206.49 106.77 206.423 106.814 206.355C106.912 206.204 107.076 206.227 107.093 206.23C107.134 206.236 107.165 206.249 107.177 206.254C107.193 206.261 107.207 206.269 107.218 206.275C107.24 206.288 107.264 206.303 107.287 206.319C107.335 206.351 107.398 206.397 107.476 206.456C107.922 206.795 108.364 207.156 108.8 207.513C109.068 207.732 109.334 207.95 109.598 208.16C109.634 208.189 109.699 208.229 109.795 208.288C109.743 208.012 109.682 207.74 109.621 207.483C109.568 207.262 109.551 207.072 109.572 206.879C109.592 206.689 109.649 206.512 109.722 206.321L109.802 206.116ZM107.284 206.364C107.28 206.359 107.281 206.36 107.284 206.365C107.284 206.365 107.284 206.365 107.284 206.364ZM109.339 209.053C109.328 209.055 109.318 209.056 109.307 209.058C109.189 209.073 109.074 209.084 108.961 209.091C108.962 209.091 108.963 209.091 108.963 209.091C109.001 209.084 109.037 209.077 109.068 209.072C109.182 209.052 109.268 209.045 109.339 209.053Z" fill="white" fill-opacity="0.8"/>
<path fill-rule="evenodd" clip-rule="evenodd" d="M89.0586 210.074L89.5795 210.275L89.5502 210.351C89.4242 210.678 89.4732 211.113 89.6114 211.615C89.6704 211.829 89.7421 212.044 89.8148 212.257C90.0377 211.845 90.255 211.436 90.4551 211.021C90.5222 210.883 90.689 210.824 90.8279 210.891C90.9667 210.958 91.0249 211.125 90.9579 211.264C90.6986 211.802 90.4093 212.333 90.1235 212.858C90.116 212.871 90.1084 212.885 90.1009 212.899C90.1373 212.894 90.1746 212.886 90.2142 212.877C90.2646 212.864 90.3108 212.85 90.3637 212.835C90.3928 212.826 90.424 212.817 90.4592 212.807C90.5512 212.781 90.6563 212.754 90.7734 212.739C91.4846 212.643 91.9628 212.612 92.6753 212.887C92.8191 212.942 92.8908 213.104 92.8353 213.247C92.7798 213.391 92.6183 213.463 92.4744 213.407C91.892 213.183 91.525 213.201 90.8476 213.292C90.769 213.302 90.6932 213.321 90.6113 213.344C90.5885 213.351 90.5634 213.358 90.5371 213.366C90.4769 213.384 90.4101 213.403 90.3479 213.419C90.322 213.425 90.2956 213.431 90.2687 213.436C90.3179 213.501 90.3738 213.563 90.4356 213.626C90.5228 213.714 90.6173 213.799 90.7206 213.891L90.733 213.902C90.8388 213.997 90.953 214.1 91.0618 214.212C91.1783 214.333 91.3187 214.44 91.4793 214.563C91.4962 214.576 91.5133 214.59 91.5307 214.603C91.7038 214.736 91.8987 214.89 92.0535 215.077C92.094 215.126 92.1388 215.181 92.1771 215.231C92.2098 215.274 92.2556 215.335 92.2823 215.391C92.2896 215.406 92.302 215.434 92.3095 215.469C92.3147 215.493 92.333 215.586 92.275 215.683C92.2016 215.804 92.0789 215.822 92.0208 215.821C91.9674 215.819 91.9255 215.804 91.9076 215.796C91.8393 215.769 91.758 215.711 91.6786 215.651C91.5155 215.527 91.3932 215.363 91.2975 215.234C91.2916 215.226 91.2858 215.218 91.2801 215.211C91.1719 215.066 91.091 214.964 90.993 214.896C90.7737 214.744 90.5744 214.57 90.3883 214.405C90.3676 214.386 90.347 214.368 90.3266 214.35C90.2513 214.283 90.1782 214.218 90.1054 214.155C90.0968 214.269 90.0907 214.373 90.0924 214.469C90.0951 214.63 90.1359 214.803 90.1851 215.011C90.2001 215.075 90.2159 215.142 90.2316 215.213C90.2923 215.486 90.3523 215.825 90.2522 216.139C90.247 216.156 90.2409 216.173 90.2339 216.191C90.229 216.202 90.2153 216.236 90.19 216.269C90.1789 216.283 90.1464 216.324 90.0885 216.353C90.013 216.39 89.908 216.398 89.8142 216.339C89.7437 216.295 89.7143 216.234 89.7053 216.214C89.6934 216.188 89.6879 216.165 89.6853 216.152C89.6765 216.111 89.6767 216.068 89.6768 216.05L89.6768 216.05C89.6769 216.024 89.678 215.996 89.6794 215.968C89.6811 215.933 89.6838 215.892 89.6862 215.855C89.6875 215.835 89.6887 215.817 89.6897 215.8C89.6919 215.763 89.6927 215.741 89.6931 215.731C89.6934 215.723 89.6935 215.722 89.6937 215.724C89.6661 215.425 89.5751 215.169 89.4717 214.878C89.4635 214.855 89.4552 214.832 89.4469 214.808C89.4012 214.679 89.3545 214.543 89.3153 214.399C89.1557 214.728 89.0075 215.059 88.877 215.395C88.8707 215.411 88.8643 215.428 88.8579 215.444L88.7512 215.721L88.2302 215.52L88.3462 215.219C88.3494 215.211 88.3525 215.203 88.3556 215.195C88.5198 214.771 88.6825 214.373 88.8947 213.988C88.9862 213.804 89.0804 213.621 89.176 213.44C89.136 213.45 89.0964 213.461 89.0547 213.473C89.0226 213.482 88.9893 213.492 88.9536 213.501C88.8558 213.528 88.747 213.555 88.6364 213.57C87.8106 213.678 87.0896 213.602 86.3092 213.301L85.7884 213.1C85.7558 213.089 85.7259 213.077 85.6995 213.066C85.6875 213.062 85.6762 213.057 85.6658 213.053L85.6226 213.036L85.8235 212.516L85.9706 212.572C86.0236 212.592 86.0622 212.604 86.1044 212.61C86.3715 212.646 86.6444 212.641 86.9321 212.621C87.0607 212.611 87.1895 212.599 87.322 212.587C87.3379 212.586 87.3539 212.584 87.3699 212.583C87.518 212.569 87.6704 212.555 87.8241 212.546C87.905 212.541 87.9818 212.526 88.077 212.508C88.0871 212.506 88.0974 212.504 88.108 212.502C87.7855 212.223 87.466 211.942 87.1808 211.687C86.7509 211.303 86.3908 210.971 86.2141 210.791C86.1711 210.747 86.1311 210.705 86.1034 210.67C86.1032 210.67 86.1028 210.669 86.1025 210.669C86.0936 210.658 86.0631 210.619 86.0446 210.57C86.0386 210.554 86.0289 210.525 86.0264 210.487C86.0238 210.449 86.0272 210.382 86.0711 210.314C86.1693 210.162 86.3332 210.186 86.3504 210.188C86.3909 210.194 86.4221 210.208 86.4338 210.213C86.4496 210.22 86.4638 210.227 86.4748 210.233C86.4969 210.246 86.5207 210.261 86.5443 210.277C86.5923 210.31 86.6554 210.356 86.7334 210.415C87.1794 210.753 87.6207 211.114 88.0569 211.471C88.3248 211.691 88.5908 211.908 88.8547 212.118C88.8916 212.147 88.9564 212.188 89.0525 212.246C88.9999 211.97 88.9392 211.698 88.8777 211.441C88.8252 211.221 88.8078 211.031 88.8288 210.838C88.8495 210.648 88.9057 210.471 88.9796 210.279L89.0586 210.074ZM86.5409 210.323C86.5367 210.318 86.5377 210.318 86.5414 210.324C86.5412 210.323 86.541 210.323 86.5409 210.323ZM88.5963 213.011C88.5854 213.013 88.5747 213.015 88.5641 213.016C88.4462 213.032 88.3312 213.043 88.2183 213.05C88.219 213.05 88.2198 213.05 88.2205 213.049C88.2585 213.042 88.2937 213.035 88.3247 213.03C88.4388 213.011 88.5255 213.003 88.5963 213.011Z" fill="white" fill-opacity="0.8"/>
<path fill-rule="evenodd" clip-rule="evenodd" d="M108.102 235.995L108.623 236.196L108.594 236.272C108.468 236.598 108.517 237.034 108.655 237.535C108.714 237.75 108.786 237.965 108.858 238.177C109.081 237.765 109.299 237.357 109.499 236.942C109.566 236.803 109.733 236.745 109.871 236.812C110.01 236.879 110.069 237.046 110.002 237.185C109.742 237.722 109.453 238.253 109.167 238.778C109.16 238.792 109.152 238.806 109.145 238.819C109.181 238.814 109.218 238.807 109.258 238.797C109.308 238.784 109.354 238.771 109.407 238.755C109.436 238.747 109.468 238.738 109.503 238.728C109.595 238.702 109.7 238.675 109.817 238.659C110.528 238.564 111.006 238.532 111.719 238.807C111.863 238.862 111.934 239.024 111.879 239.168C111.823 239.312 111.662 239.383 111.518 239.328C110.936 239.103 110.569 239.122 109.891 239.212C109.813 239.223 109.737 239.242 109.655 239.265C109.632 239.271 109.607 239.279 109.581 239.286C109.521 239.304 109.454 239.324 109.391 239.339C109.366 239.345 109.339 239.351 109.312 239.357C109.362 239.421 109.417 239.484 109.479 239.546C109.566 239.635 109.661 239.719 109.764 239.812L109.777 239.823C109.882 239.917 109.997 240.02 110.105 240.133C110.222 240.253 110.362 240.361 110.523 240.484C110.54 240.497 110.557 240.51 110.574 240.523C110.747 240.656 110.942 240.81 111.097 240.998C111.138 241.047 111.182 241.102 111.221 241.151C111.253 241.194 111.299 241.256 111.326 241.311C111.333 241.327 111.346 241.355 111.353 241.39C111.358 241.414 111.377 241.507 111.319 241.603C111.245 241.724 111.123 241.743 111.064 241.741C111.011 241.74 110.969 241.724 110.951 241.717C110.883 241.689 110.802 241.631 110.722 241.571C110.559 241.448 110.437 241.283 110.341 241.154C110.335 241.147 110.329 241.139 110.324 241.131C110.215 240.986 110.135 240.884 110.037 240.816C109.817 240.665 109.618 240.491 109.432 240.325C109.411 240.307 109.391 240.288 109.37 240.27C109.295 240.203 109.222 240.138 109.149 240.075C109.14 240.189 109.134 240.293 109.136 240.39C109.139 240.551 109.179 240.723 109.229 240.932C109.244 240.995 109.259 241.062 109.275 241.133C109.336 241.406 109.396 241.745 109.296 242.06C109.291 242.076 109.285 242.094 109.277 242.111C109.273 242.123 109.259 242.156 109.234 242.189C109.222 242.204 109.19 242.245 109.132 242.273C109.057 242.311 108.952 242.318 108.858 242.26C108.787 242.216 108.758 242.155 108.749 242.134C108.737 242.108 108.731 242.085 108.729 242.073C108.72 242.031 108.72 241.988 108.72 241.971L108.72 241.971C108.72 241.945 108.722 241.916 108.723 241.889C108.725 241.854 108.727 241.813 108.73 241.775C108.731 241.756 108.732 241.737 108.733 241.721C108.735 241.684 108.736 241.662 108.737 241.651C108.737 241.644 108.737 241.642 108.737 241.644C108.71 241.345 108.619 241.089 108.515 240.798C108.507 240.775 108.499 240.752 108.49 240.728C108.445 240.599 108.398 240.464 108.359 240.319C108.199 240.648 108.051 240.979 107.921 241.315C107.914 241.332 107.908 241.348 107.901 241.365L107.795 241.641L107.274 241.441L107.39 241.14C107.393 241.132 107.396 241.124 107.399 241.116C107.563 240.691 107.726 240.294 107.938 239.909C108.03 239.725 108.124 239.542 108.22 239.36C108.18 239.371 108.14 239.382 108.098 239.394C108.066 239.403 108.033 239.412 107.997 239.422C107.899 239.449 107.791 239.476 107.68 239.49C106.854 239.598 106.133 239.523 105.353 239.222L104.832 239.021C104.799 239.009 104.769 238.997 104.743 238.987C104.731 238.982 104.72 238.978 104.709 238.974L104.666 238.957L104.867 238.436L105.014 238.493C105.067 238.513 105.106 238.525 105.148 238.53C105.415 238.567 105.688 238.561 105.976 238.541C106.104 238.532 106.233 238.52 106.366 238.507C106.381 238.506 106.397 238.504 106.413 238.503C106.562 238.489 106.714 238.476 106.868 238.466C106.949 238.462 107.025 238.447 107.121 238.428C107.131 238.427 107.141 238.425 107.152 238.423C106.829 238.143 106.51 237.862 106.224 237.607C105.795 237.223 105.434 236.891 105.258 236.711C105.215 236.668 105.175 236.625 105.147 236.59C105.147 236.59 105.146 236.59 105.146 236.589C105.137 236.578 105.107 236.54 105.088 236.49C105.082 236.475 105.073 236.445 105.07 236.407C105.067 236.369 105.071 236.302 105.115 236.234C105.213 236.083 105.377 236.106 105.394 236.109C105.434 236.115 105.466 236.128 105.477 236.133C105.493 236.14 105.507 236.148 105.518 236.154C105.541 236.166 105.564 236.182 105.588 236.198C105.636 236.23 105.699 236.276 105.777 236.335C106.223 236.674 106.664 237.035 107.1 237.392C107.368 237.611 107.634 237.829 107.898 238.039C107.935 238.068 108 238.108 108.096 238.167C108.043 237.891 107.983 237.619 107.921 237.361C107.869 237.141 107.851 236.951 107.872 236.758C107.893 236.568 107.949 236.391 108.023 236.2L108.102 235.995ZM105.584 236.243C105.58 236.238 105.581 236.239 105.585 236.244C105.585 236.244 105.585 236.244 105.584 236.243ZM107.64 238.932C107.629 238.934 107.618 238.935 107.608 238.937C107.49 238.952 107.375 238.963 107.262 238.97C107.263 238.97 107.263 238.97 107.264 238.97C107.302 238.963 107.337 238.956 107.368 238.95C107.482 238.931 107.569 238.924 107.64 238.932Z" fill="white" fill-opacity="0.8"/>
<path fill-rule="evenodd" clip-rule="evenodd" d="M120.304 229.064C120.443 229.131 120.501 229.298 120.434 229.437C120.364 229.581 120.29 229.726 120.213 229.868C120.528 229.827 120.769 229.813 121.114 229.946C121.258 230.001 121.329 230.163 121.274 230.307C121.218 230.45 121.057 230.522 120.913 230.467C120.697 230.383 120.566 230.385 120.292 230.421C120.293 230.421 120.294 230.422 120.294 230.423L120.298 230.426C120.345 230.468 120.4 230.517 120.452 230.572C120.496 230.617 120.549 230.657 120.623 230.714C120.63 230.719 120.637 230.725 120.644 230.73C120.72 230.789 120.82 230.867 120.901 230.965C120.919 230.987 120.941 231.013 120.96 231.038C120.973 231.055 121.003 231.095 121.023 231.136C121.029 231.148 121.04 231.173 121.047 231.206C121.052 231.227 121.07 231.318 121.013 231.413C120.94 231.533 120.819 231.551 120.763 231.549C120.712 231.548 120.673 231.533 120.659 231.527C120.606 231.506 120.554 231.467 120.521 231.442C120.43 231.373 120.364 231.283 120.323 231.228C120.319 231.224 120.316 231.22 120.314 231.216C120.264 231.149 120.242 231.124 120.222 231.111C120.183 231.084 120.145 231.055 120.109 231.026C120.113 231.046 120.118 231.067 120.123 231.09C120.15 231.211 120.187 231.399 120.129 231.583C120.126 231.592 120.122 231.605 120.116 231.618L120.116 231.618C120.113 231.626 120.1 231.656 120.077 231.687C120.066 231.701 120.034 231.742 119.977 231.77C119.902 231.807 119.798 231.815 119.704 231.756C119.634 231.713 119.605 231.652 119.596 231.633C119.585 231.607 119.58 231.585 119.577 231.574C119.57 231.539 119.57 231.506 119.57 231.497C119.57 231.496 119.57 231.496 119.57 231.496C119.57 231.481 119.571 231.465 119.572 231.452C119.572 231.436 119.574 231.415 119.575 231.397C119.575 231.389 119.576 231.382 119.576 231.376C119.577 231.365 119.577 231.358 119.577 231.355C119.571 231.298 119.559 231.246 119.543 231.19C119.533 231.213 119.524 231.237 119.515 231.26C119.512 231.268 119.509 231.275 119.506 231.283L119.459 231.406L118.938 231.205L118.989 231.071C118.991 231.068 118.992 231.065 118.993 231.061C119.06 230.889 119.128 230.721 119.215 230.556C118.851 230.594 118.523 230.554 118.173 230.419L117.945 230.332C117.926 230.325 117.91 230.318 117.899 230.314C117.894 230.312 117.89 230.31 117.887 230.309L117.868 230.302L118.068 229.781L118.136 229.807C118.139 229.808 118.141 229.809 118.143 229.809M118.158 229.814C118.262 229.828 118.371 229.826 118.494 229.817C118.548 229.814 118.602 229.809 118.659 229.803C118.609 229.759 118.56 229.715 118.513 229.673C118.322 229.502 118.158 229.352 118.076 229.268C118.056 229.248 118.033 229.224 118.016 229.202C118.016 229.201 118.015 229.201 118.015 229.201C118.01 229.195 117.983 229.161 117.966 229.116C117.96 229.101 117.951 229.072 117.948 229.034C117.946 228.997 117.949 228.93 117.993 228.863C118.09 228.712 118.253 228.735 118.269 228.738C118.308 228.743 118.337 228.756 118.347 228.76C118.36 228.766 118.371 228.772 118.379 228.776C118.394 228.785 118.408 228.794 118.42 228.802C118.445 228.819 118.475 228.841 118.511 228.868C118.711 229.02 118.912 229.184 119.108 229.345C119.141 229.372 119.174 229.399 119.207 229.426C119.19 229.337 119.185 229.251 119.194 229.163C119.206 229.059 119.236 228.965 119.271 228.876L119.306 228.785L119.827 228.986L119.814 229.019C119.782 229.103 119.784 229.229 119.826 229.406C119.862 229.335 119.897 229.265 119.932 229.194C119.999 229.055 120.165 228.997 120.304 229.064M120.128 231.497C120.129 231.501 120.128 231.502 120.128 231.498C120.128 231.498 120.128 231.497 120.128 231.497Z" fill="white" fill-opacity="0.8"/>
<path fill-rule="evenodd" clip-rule="evenodd" d="M77.2013 220.129C77.3401 220.196 77.3983 220.363 77.3313 220.502C77.2614 220.647 77.1866 220.791 77.1104 220.933C77.4253 220.892 77.6657 220.878 78.0107 221.011C78.1546 221.067 78.2262 221.228 78.1707 221.372C78.1153 221.516 77.9537 221.587 77.8098 221.532C77.5938 221.449 77.4629 221.45 77.189 221.486C77.1897 221.487 77.1905 221.488 77.1913 221.488L77.1951 221.492C77.2418 221.533 77.2965 221.583 77.3493 221.637C77.3927 221.682 77.4457 221.723 77.5197 221.779C77.5265 221.785 77.5335 221.79 77.5407 221.796C77.6169 221.854 77.7168 221.932 77.7982 222.031C77.8163 222.053 77.8377 222.079 77.8566 222.103C77.8699 222.121 77.9003 222.16 77.9201 222.202C77.9257 222.214 77.937 222.238 77.944 222.271C77.9486 222.293 77.967 222.384 77.9098 222.479C77.8372 222.599 77.7159 222.616 77.6601 222.615C77.6089 222.614 77.57 222.599 77.5559 222.593C77.503 222.572 77.4506 222.532 77.4182 222.508C77.3273 222.439 77.2606 222.349 77.2195 222.294C77.2164 222.289 77.2134 222.285 77.2105 222.281C77.1605 222.214 77.1385 222.19 77.119 222.176C77.0796 222.149 77.0418 222.121 77.0056 222.092C77.0102 222.111 77.0151 222.133 77.0202 222.156C77.047 222.277 77.0842 222.465 77.0258 222.649C77.0228 222.658 77.0186 222.67 77.0132 222.683L77.0131 222.684C77.0097 222.692 76.9974 222.722 76.9738 222.753C76.9633 222.767 76.9314 222.807 76.8741 222.835C76.799 222.873 76.6945 222.88 76.6012 222.822C76.5311 222.778 76.502 222.717 76.4934 222.698C76.4819 222.672 76.4767 222.65 76.4743 222.639C76.4669 222.604 76.4671 222.571 76.4672 222.562C76.4672 222.562 76.4672 222.561 76.4672 222.561C76.4672 222.546 76.4679 222.531 76.4685 222.518C76.4694 222.501 76.4707 222.48 76.4718 222.463C76.4723 222.455 76.4728 222.447 76.4732 222.441C76.4738 222.431 76.4741 222.424 76.4743 222.42C76.4683 222.364 76.4563 222.311 76.4397 222.255C76.4302 222.279 76.4209 222.302 76.4119 222.325C76.4089 222.333 76.406 222.341 76.403 222.348L76.3556 222.471L75.8347 222.27L75.8862 222.137C75.8875 222.133 75.8888 222.13 75.8901 222.127C75.9569 221.954 76.0249 221.786 76.1116 221.621C75.748 221.66 75.4202 221.62 75.0697 221.485L74.8422 221.397C74.8233 221.39 74.8073 221.384 74.7955 221.379C74.791 221.377 74.787 221.376 74.7838 221.374L74.7646 221.367L74.9655 220.846L75.0334 220.872C75.0358 220.873 75.0381 220.874 75.0402 220.875M75.0554 220.879C75.1587 220.893 75.2678 220.892 75.3914 220.883C75.4452 220.879 75.4991 220.874 75.5564 220.869C75.5058 220.824 75.4566 220.78 75.4096 220.738C75.2188 220.568 75.0552 220.417 74.9727 220.333C74.9533 220.313 74.9305 220.289 74.9126 220.267C74.9125 220.267 74.9123 220.267 74.9121 220.266C74.9073 220.26 74.8801 220.227 74.8628 220.181C74.8572 220.166 74.8477 220.137 74.8451 220.1C74.8426 220.062 74.8459 219.995 74.8896 219.928C74.9873 219.777 75.1503 219.801 75.1661 219.803C75.2052 219.809 75.2343 219.821 75.2436 219.826C75.2569 219.831 75.268 219.837 75.2755 219.842C75.2905 219.85 75.3049 219.86 75.317 219.868C75.3417 219.884 75.3723 219.907 75.4078 219.934C75.6076 220.085 75.8086 220.25 76.0047 220.41C76.0379 220.437 76.0709 220.464 76.1038 220.491C76.0869 220.402 76.0816 220.317 76.0912 220.228C76.1025 220.124 76.1331 220.031 76.1677 219.941L76.2028 219.85L76.7237 220.051L76.7107 220.085C76.6786 220.168 76.681 220.294 76.7227 220.471C76.7589 220.401 76.7943 220.33 76.8285 220.259C76.8955 220.121 77.0624 220.062 77.2013 220.129M77.0255 222.562C77.0256 222.567 77.0254 222.568 77.0255 222.563C77.0255 222.563 77.0255 222.563 77.0255 222.562Z" fill="white" fill-opacity="0.8"/>
</g>
<path d="M133.661 172.58C136.618 159.9 144.669 147.273 119.985 158.448C124.89 143.008 123.37 138.402 106.053 144.053C110.308 133.955 111.569 128.889 93.2083 130.78C95.35 117.755 91.0358 116.494 80.3631 117.508C71.0503 121.229 61.374 121.159 76.5957 136.758C68.8075 142.921 54.4817 141.066 71.9143 160.679C59.3518 163.24 45.8589 160.953 67.496 183.256C52.1742 189.871 50.7947 194.754 63.0777 205.833C72.6368 219.482 76.2722 218.744 78.7695 198.025C85.8187 204.884 88.504 203.321 91.498 192.875C102.396 199.818 106.956 200.43 107.104 184.62C118.743 193.749 125.021 196.162 133.661 172.58Z" fill="#EF5350"/>
<path d="M63.6186 177.861C63.2633 184.278 57.9469 191.72 79.7177 181.52C78.018 189.602 80.4101 191.399 96.1178 185.247C93.9885 190.748 93.7692 193.328 111.239 188.683C111.745 195.091 116.188 194.78 126.36 192.119C134.672 188.498 144.091 186.538 126.198 182.526C132.543 178.099 146.835 176.001 125.996 170.604C137.697 166.845 151.265 165.116 125.805 159.352C139.383 153.168 139.754 150.648 125.615 148.101C113.613 143.816 110.226 144.902 111.914 154.907C103.701 153.216 101.401 154.485 100.566 159.886C88.5949 158.948 84.0417 159.607 87.0386 166.879C73.9123 165.094 67.3311 165.28 63.6186 177.861Z" fill="#EF5350"/>
<path d="M45.754 165.493C45.3987 171.91 40.0823 179.351 61.8531 169.151C60.1534 177.234 62.5454 179.031 78.2532 172.878C76.1239 178.38 75.9045 180.96 93.3743 176.314C93.8802 182.722 98.3238 182.412 108.495 179.751C116.807 176.129 126.226 174.169 108.333 170.157C114.678 165.73 128.97 163.632 108.131 158.235C119.832 154.476 133.401 152.747 107.941 146.984C121.518 140.8 121.889 138.279 107.75 135.732C95.748 131.447 92.3611 132.533 94.0498 142.539C85.836 140.848 83.5364 142.116 82.7015 147.517C70.7303 146.58 66.1771 147.238 69.174 154.511C56.0477 152.725 49.4665 152.911 45.754 165.493Z" fill="#EF5350"/>
<path d="M44.3319 151.999C43.9766 158.416 38.6602 165.858 60.431 155.658C58.7312 163.741 61.1233 165.538 76.831 159.385C74.7018 164.887 74.4824 167.467 91.9522 162.821C92.458 169.229 96.9017 168.919 107.073 166.257C115.385 162.636 124.804 160.676 106.911 156.664C113.256 152.237 127.548 150.139 106.709 144.742C118.41 140.983 131.979 139.254 106.518 133.491C120.096 127.307 120.467 124.786 106.328 122.239C94.3259 117.954 90.939 119.04 92.6277 129.046C84.4139 127.354 82.1143 128.623 81.2794 134.024C69.3082 133.087 64.755 133.745 67.7519 141.018C54.6255 139.232 48.0443 139.418 44.3319 151.999Z" fill="#EF5350"/>
<path d="M29.7048 178.695C29.3495 185.112 24.0331 192.553 45.8039 182.353C44.1042 190.436 46.4962 192.233 62.204 186.08C60.0747 191.582 59.8553 194.162 77.3251 189.516C77.831 195.924 82.2746 195.614 92.4462 192.953C100.758 189.331 110.177 187.372 92.2838 183.359C98.629 178.933 112.921 176.834 92.0819 171.437C103.783 167.679 117.351 165.949 91.8914 160.186C105.469 154.002 105.84 151.481 91.7009 148.934C79.6988 144.649 76.3119 145.735 78.0006 155.741C69.7868 154.05 67.4872 155.318 66.6523 160.719C54.6811 159.782 50.1279 160.44 53.1248 167.713C39.9985 165.927 33.4173 166.114 29.7048 178.695Z" fill="#EF5350"/>
<path d="M150.951 165.776C153.715 159.974 161.458 155.107 137.445 156.282C142.085 149.449 140.554 146.878 123.686 146.61C127.744 142.328 128.926 140.024 111 137.693C112.964 131.572 108.735 130.173 98.3139 128.775C89.2493 128.971 79.7916 127.21 94.8235 137.713C87.2732 139.4 73.2537 135.918 90.4862 148.819C78.234 147.856 65.0242 144.307 86.3927 159.301C71.4841 159.87 70.1845 162.062 82.2992 169.784C91.7774 178.303 95.323 178.583 97.5576 168.685C104.515 173.367 107.124 173.066 109.946 168.386C120.666 173.796 125.129 174.915 125.116 167.049C136.583 173.682 142.742 176.007 150.951 165.776Z" fill="#EF5350"/>
<path d="M136.794 186.898C137.732 180.54 143.705 173.614 121.095 181.788C123.524 173.894 121.306 171.886 105.103 176.582C107.724 171.298 108.178 168.748 90.3577 171.783C90.4377 165.356 85.9842 165.26 75.6125 166.983C67.005 169.832 57.4472 170.926 74.9002 176.552C68.1781 180.382 53.7541 181.169 74.0151 188.442C62.0202 191.119 48.3506 191.605 73.1797 199.664C59.0953 204.586 58.4964 207.062 72.3444 210.886C83.9062 216.247 87.3779 215.474 86.6078 205.356C94.6334 207.789 97.0389 206.735 98.3625 201.432C110.198 203.457 114.793 203.216 112.471 195.7C125.38 198.675 131.951 199.089 136.794 186.898Z" fill="#EF5350"/>
<path d="M128.554 232.045L149.059 256.925L74.501 271.886L75.323 251.761L85.96 249.627L92.7137 230.202L107.625 227.21L114.04 234.957L128.554 232.045Z" fill="url(#paint60_linear)" fill-opacity="0.4"/>
<path d="M91.1554 253.877L111.66 278.757L37.1021 293.718L37.9241 273.593L48.5611 271.458L55.3148 252.034L70.2264 249.042L76.6415 256.789L91.1554 253.877Z" fill="url(#paint61_linear)" fill-opacity="0.4"/>
<path d="M135.163 225.295L151.393 251.033L76.8347 265.995L77.6567 245.869L88.2936 243.735L99.8046 252.14L107.526 230.841L118.614 237.651L135.163 225.295Z" fill="url(#paint62_linear)"/>
<path d="M93.7285 244.536L109.958 270.275L35.4006 285.236L36.2226 265.11L46.8595 262.976L58.3705 271.382L66.0924 250.082L77.1797 256.892L93.7285 244.536Z" fill="url(#paint63_linear)" fill-opacity="0.4"/>
<path d="M145.669 242.097L166.174 266.978L91.616 281.939L92.438 261.813L103.075 259.679L109.829 240.254L124.74 237.262L131.155 245.009L145.669 242.097Z" fill="url(#paint64_linear)" fill-opacity="0.4"/>
<path d="M147.275 246.355L162.484 271.37L86.4396 271.37L91.205 254.15L102.054 254.15L112.497 238.561L127.706 238.561L132.472 246.355L147.275 246.355Z" fill="url(#paint65_linear)" fill-opacity="0.4"/>
<path d="M111.991 257.956L127.2 282.97L51.1555 282.97L55.921 265.75L66.7699 265.75L77.2133 250.162L92.4222 250.162L97.1876 257.956L111.991 257.956Z" fill="url(#paint66_linear)" fill-opacity="0.4"/>
<path d="M160.76 240.917L171.609 265.932L95.5647 265.932L100.33 248.712L111.179 248.712L120.811 257.956L132.573 240.917L142.104 248.712L160.76 240.917Z" fill="url(#paint67_linear)" fill-opacity="0.4"/>
<path d="M116.351 250.343L127.2 275.357L51.1555 275.357L55.921 258.137L66.7699 258.137L76.4022 267.382L88.1637 250.343L97.6946 258.137L116.351 250.343Z" fill="url(#paint68_linear)" fill-opacity="0.4"/>
<path d="M167.756 257.231L182.965 282.245L106.921 282.245L111.686 265.025L122.535 265.025L132.978 249.436L148.187 249.436L152.953 257.231L167.756 257.231Z" fill="url(#paint69_linear)" fill-opacity="0.4"/>
<path d="M172.421 263.3L187.63 277.292L111.586 277.292L116.352 267.66L127.2 267.66L137.644 258.94L152.853 258.94L157.618 263.3L172.421 263.3Z" fill="url(#paint70_linear)" fill-opacity="0.4"/>
<path d="M137.136 269.789L152.345 283.781L76.301 283.781L81.0665 274.149L91.9154 274.149L102.359 265.429L117.568 265.429L122.333 269.789L137.136 269.789Z" fill="url(#paint71_linear)" fill-opacity="0.4"/>
<path d="M185.906 260.258L196.755 274.25L120.711 274.25L125.477 264.618L136.326 264.618L145.958 269.789L157.719 260.258L167.25 264.618L185.906 260.258Z" fill="url(#paint72_linear)" fill-opacity="0.4"/>
<path d="M144.336 260.867L155.185 274.859L79.1406 274.859L83.9061 265.227L94.755 265.227L104.387 270.398L116.149 260.867L125.68 265.227L144.336 260.867Z" fill="url(#paint73_linear)" fill-opacity="0.4"/>
<path d="M192.902 269.383L208.111 283.375L132.067 283.375L136.833 273.743L147.682 273.743L158.125 265.023L173.334 265.023L178.099 269.383L192.902 269.383Z" fill="url(#paint74_linear)" fill-opacity="0.4"/>
<path d="M119.495 262.895L134.703 276.887L58.6592 276.887L63.4246 267.255L74.2736 267.255L84.717 258.535L99.9258 258.535L104.691 262.895L119.495 262.895Z" fill="url(#paint75_linear)" fill-opacity="0.4"/>
<path d="M84.2105 269.384L99.4193 283.376L23.3751 283.376L28.1406 273.744L38.9895 273.744L49.4329 265.024L64.6418 265.024L69.4072 269.384L84.2105 269.384Z" fill="url(#paint76_linear)" fill-opacity="0.4"/>
<path d="M132.98 259.853L143.829 273.845L67.7844 273.845L72.5499 264.213L83.3988 264.213L93.0311 269.384L104.793 259.853L114.323 264.213L132.98 259.853Z" fill="url(#paint77_linear)"/>
<path d="M88.5703 265.125L99.4193 279.117L23.3751 279.117L28.1406 269.485L38.9895 269.485L48.6218 274.656L60.3833 265.125L69.9142 269.485L88.5703 265.125Z" fill="url(#paint78_linear)" fill-opacity="0.4"/>
<path d="M139.976 268.979L155.184 282.971L79.1403 282.971L83.9057 273.338L94.7547 273.338L105.198 264.619L120.407 264.619L125.172 268.979L139.976 268.979Z" fill="url(#paint79_linear)" fill-opacity="0.4"/>
<path d="M306.887 267.568C257.847 268.006 247.69 273.567 228.503 283.159C223.833 293.175 233.106 295.833 259.364 298.154C274.544 310.138 311.611 305.364 374.479 298.154C523.793 311.851 507.675 302.906 546.205 298.154C560.312 302.146 564.623 307.974 579.339 292.918C571.659 277.536 554.152 280.703 524.432 271.853C469.656 270.287 464.412 263.352 446.805 267.568C415.939 257.546 396.653 258.372 362.551 258.88C333.073 261.576 320.295 263.427 306.887 267.568Z" fill="#EF5350"/>
<path fill-rule="evenodd" clip-rule="evenodd" d="M483.862 290.687C492.311 294.906 498.279 297.886 510.231 296.132C528.144 294.391 537.985 293.128 554.535 289.467C562.096 293.403 568.037 295.97 573.966 297.875C565.472 304.708 560.655 303.029 552.868 300.314C550.878 299.62 548.694 298.859 546.205 298.154C537.937 299.174 532.185 300.387 526.775 301.527C506.974 305.702 491.752 308.912 374.479 298.154C372.218 298.414 369.989 298.67 367.794 298.922C308.973 305.685 273.998 309.707 259.364 298.154C233.106 295.833 223.833 293.175 228.503 283.159C228.877 282.972 229.247 282.787 229.614 282.603C248.1 273.353 258.802 267.998 306.887 267.568C307.584 267.353 308.278 267.144 308.973 266.941C306.553 271.374 289.171 273.342 273.156 275.155C254.277 277.292 237.296 279.215 248.95 284.706C266.635 304.565 334.221 280.686 362.403 270.729C365.299 269.706 367.779 268.83 369.745 268.164C371.916 272.967 385.516 273.286 398.835 273.598C408.161 273.816 417.349 274.031 422.38 275.781C458.414 277.978 473.137 285.331 483.862 290.687ZM319.535 264.316L417.983 260.621C402.149 258.261 387.24 258.495 367.31 258.807C365.755 258.831 364.17 258.856 362.551 258.88C342.107 260.75 329.695 262.213 319.535 264.316Z" fill="#F44336"/>
<path d="M198.546 267.568C149.506 268.006 139.349 273.567 120.162 283.159C115.492 293.175 124.764 295.833 151.023 298.154C166.203 310.138 203.27 305.364 266.138 298.154C415.452 311.851 399.334 302.906 437.864 298.154C451.971 302.146 456.282 307.974 470.998 292.918C463.317 277.536 445.811 280.703 416.091 271.853C361.314 270.287 356.071 263.352 338.464 267.568C307.598 257.546 288.312 258.372 254.21 258.88C224.732 261.576 211.954 263.427 198.546 267.568Z" fill="#EF5350"/>
<path fill-rule="evenodd" clip-rule="evenodd" d="M375.521 290.687C383.97 294.906 389.939 297.886 401.891 296.132C419.804 294.391 429.644 293.128 446.195 289.467C453.756 293.403 459.696 295.97 465.625 297.875C457.131 304.708 452.314 303.029 444.527 300.314C442.537 299.62 440.353 298.859 437.864 298.154C429.596 299.174 423.844 300.387 418.434 301.527C398.633 305.702 383.411 308.912 266.138 298.154C263.877 298.414 261.648 298.67 259.453 298.922C200.632 305.685 165.657 309.707 151.023 298.154C124.764 295.833 115.492 293.175 120.162 283.159C120.536 282.972 120.906 282.787 121.273 282.603C139.759 273.353 150.461 267.998 198.546 267.568C199.243 267.353 199.938 267.144 200.633 266.941C198.213 271.374 180.831 273.342 164.815 275.155C145.937 277.292 128.956 279.215 140.61 284.706C158.294 304.565 225.88 280.686 254.063 270.729C256.959 269.706 259.438 268.83 261.405 268.164C263.575 272.967 277.175 273.286 290.495 273.598C299.82 273.816 309.008 274.031 314.04 275.781C350.074 277.978 364.796 285.331 375.521 290.687ZM211.194 264.316L309.642 260.621C293.808 258.261 278.899 258.495 258.969 258.807C257.414 258.831 255.829 258.856 254.21 258.88C233.766 260.75 221.354 262.213 211.194 264.316Z" fill="#F44336"/>
<defs>
<linearGradient id="paint0_linear" x1="310.285" y1="341.864" x2="332.181" y2="450.98" gradientUnits="userSpaceOnUse">
<stop stop-color="#999999"/>
<stop offset="1" stop-color="#4D4D4D"/>
</linearGradient>
<linearGradient id="paint1_linear" x1="421.91" y1="276.703" x2="443.806" y2="385.819" gradientUnits="userSpaceOnUse">
<stop stop-color="#999999"/>
<stop offset="1" stop-color="#4D4D4D"/>
</linearGradient>
<linearGradient id="paint2_linear" x1="303.321" y1="359.449" x2="325.216" y2="468.564" gradientUnits="userSpaceOnUse">
<stop stop-color="#999999"/>
<stop offset="1" stop-color="#4D4D4D"/>
</linearGradient>
<linearGradient id="paint3_linear" x1="426.991" y1="302.022" x2="448.887" y2="411.138" gradientUnits="userSpaceOnUse">
<stop stop-color="#4D4D4D"/>
<stop offset="1" stop-color="#999999"/>
</linearGradient>
<linearGradient id="paint4_linear" x1="259.201" y1="311.862" x2="281.096" y2="420.977" gradientUnits="userSpaceOnUse">
<stop stop-color="#999999"/>
<stop offset="1" stop-color="#4D4D4D"/>
</linearGradient>
<linearGradient id="paint5_linear" x1="272.436" y1="321.082" x2="272.436" y2="419.008" gradientUnits="userSpaceOnUse">
<stop stop-color="#999999"/>
<stop offset="1" stop-color="#4D4D4D"/>
</linearGradient>
<linearGradient id="paint6_linear" x1="377.751" y1="286.456" x2="377.751" y2="384.382" gradientUnits="userSpaceOnUse">
<stop stop-color="#999999"/>
<stop offset="1" stop-color="#4D4D4D"/>
</linearGradient>
<linearGradient id="paint7_linear" x1="245.199" y1="337.312" x2="245.199" y2="435.238" gradientUnits="userSpaceOnUse">
<stop stop-color="#4D4D4D"/>
<stop offset="1" stop-color="#999999"/>
</linearGradient>
<linearGradient id="paint8_linear" x1="377.751" y1="309.179" x2="377.751" y2="407.105" gradientUnits="userSpaceOnUse">
<stop stop-color="#4D4D4D"/>
<stop offset="1" stop-color="#999999"/>
</linearGradient>
<linearGradient id="paint9_linear" x1="211.305" y1="288.621" x2="211.305" y2="386.546" gradientUnits="userSpaceOnUse">
<stop stop-color="#999999"/>
<stop offset="1" stop-color="#4D4D4D"/>
</linearGradient>
<linearGradient id="paint10_linear" x1="197.385" y1="303.403" x2="197.385" y2="358.179" gradientUnits="userSpaceOnUse">
<stop stop-color="#999999"/>
<stop offset="1" stop-color="#4D4D4D"/>
</linearGradient>
<linearGradient id="paint11_linear" x1="302.7" y1="284.035" x2="302.7" y2="338.811" gradientUnits="userSpaceOnUse">
<stop stop-color="#999999"/>
<stop offset="1" stop-color="#4D4D4D"/>
</linearGradient>
<linearGradient id="paint12_linear" x1="170.148" y1="312.482" x2="170.148" y2="367.258" gradientUnits="userSpaceOnUse">
<stop stop-color="#4D4D4D"/>
<stop offset="1" stop-color="#999999"/>
</linearGradient>
<linearGradient id="paint13_linear" x1="294.227" y1="310.667" x2="294.227" y2="365.443" gradientUnits="userSpaceOnUse">
<stop stop-color="#4D4D4D"/>
<stop offset="1" stop-color="#999999"/>
</linearGradient>
<linearGradient id="paint14_linear" x1="136.254" y1="285.245" x2="136.254" y2="340.021" gradientUnits="userSpaceOnUse">
<stop stop-color="#999999"/>
<stop offset="1" stop-color="#4D4D4D"/>
</linearGradient>
<linearGradient id="paint15_linear" x1="355.356" y1="304.613" x2="355.356" y2="359.389" gradientUnits="userSpaceOnUse">
<stop stop-color="#999999"/>
<stop offset="1" stop-color="#4D4D4D"/>
</linearGradient>
<linearGradient id="paint16_linear" x1="460.671" y1="285.245" x2="460.671" y2="340.021" gradientUnits="userSpaceOnUse">
<stop stop-color="#999999"/>
<stop offset="1" stop-color="#4D4D4D"/>
</linearGradient>
<linearGradient id="paint17_linear" x1="328.119" y1="313.691" x2="328.119" y2="368.467" gradientUnits="userSpaceOnUse">
<stop stop-color="#999999"/>
<stop offset="1" stop-color="#4D4D4D"/>
</linearGradient>
<linearGradient id="paint18_linear" x1="460.671" y1="297.956" x2="460.671" y2="352.731" gradientUnits="userSpaceOnUse">
<stop stop-color="#4D4D4D"/>
<stop offset="1" stop-color="#999999"/>
</linearGradient>
<linearGradient id="paint19_linear" x1="294.225" y1="286.455" x2="294.225" y2="341.231" gradientUnits="userSpaceOnUse">
<stop stop-color="#999999"/>
<stop offset="1" stop-color="#4D4D4D"/>
</linearGradient>
<linearGradient id="paint20_linear" x1="456.776" y1="266.828" x2="449.44" y2="230.27" gradientUnits="userSpaceOnUse">
<stop stop-color="#F44336"/>
<stop offset="1" stop-color="#EF5350"/>
</linearGradient>
<linearGradient id="paint21_linear" x1="419.377" y1="288.659" x2="412.041" y2="252.101" gradientUnits="userSpaceOnUse">
<stop stop-color="#F44336"/>
<stop offset="1" stop-color="#EF5350"/>
</linearGradient>
<linearGradient id="paint22_linear" x1="459.109" y1="260.936" x2="451.773" y2="224.378" gradientUnits="userSpaceOnUse">
<stop stop-color="#F44336"/>
<stop offset="1" stop-color="#EF9A9A"/>
</linearGradient>
<linearGradient id="paint23_linear" x1="417.675" y1="280.177" x2="410.339" y2="243.619" gradientUnits="userSpaceOnUse">
<stop stop-color="#E57373"/>
<stop offset="1" stop-color="#F44336"/>
</linearGradient>
<linearGradient id="paint24_linear" x1="473.891" y1="276.879" x2="466.555" y2="240.322" gradientUnits="userSpaceOnUse">
<stop stop-color="#F44336"/>
<stop offset="1" stop-color="#EF5350"/>
</linearGradient>
<linearGradient id="paint25_linear" x1="469.456" y1="273.792" x2="469.456" y2="240.983" gradientUnits="userSpaceOnUse">
<stop stop-color="#F44336"/>
<stop offset="1" stop-color="#EF5350"/>
</linearGradient>
<linearGradient id="paint26_linear" x1="434.172" y1="285.392" x2="434.172" y2="252.583" gradientUnits="userSpaceOnUse">
<stop stop-color="#F44336"/>
<stop offset="1" stop-color="#EF5350"/>
</linearGradient>
<linearGradient id="paint27_linear" x1="478.582" y1="268.354" x2="478.582" y2="235.545" gradientUnits="userSpaceOnUse">
<stop stop-color="#E57373"/>
<stop offset="1" stop-color="#F44336"/>
</linearGradient>
<linearGradient id="paint28_linear" x1="434.172" y1="277.779" x2="434.172" y2="244.97" gradientUnits="userSpaceOnUse">
<stop stop-color="#E57373"/>
<stop offset="1" stop-color="#F44336"/>
</linearGradient>
<linearGradient id="paint29_linear" x1="489.938" y1="284.667" x2="489.938" y2="251.858" gradientUnits="userSpaceOnUse">
<stop stop-color="#F44336"/>
<stop offset="1" stop-color="#EF5350"/>
</linearGradient>
<linearGradient id="paint30_linear" x1="494.602" y1="279.715" x2="494.602" y2="261.363" gradientUnits="userSpaceOnUse">
<stop stop-color="#F44336"/>
<stop offset="1" stop-color="#EF5350"/>
</linearGradient>
<linearGradient id="paint31_linear" x1="459.317" y1="286.204" x2="459.317" y2="267.852" gradientUnits="userSpaceOnUse">
<stop stop-color="#F44336"/>
<stop offset="1" stop-color="#EF5350"/>
</linearGradient>
<linearGradient id="paint32_linear" x1="503.727" y1="276.673" x2="503.727" y2="258.321" gradientUnits="userSpaceOnUse">
<stop stop-color="#E57373"/>
<stop offset="1" stop-color="#F44336"/>
</linearGradient>
<linearGradient id="paint33_linear" x1="462.157" y1="277.281" x2="462.157" y2="258.929" gradientUnits="userSpaceOnUse">
<stop stop-color="#E57373"/>
<stop offset="1" stop-color="#F44336"/>
</linearGradient>
<linearGradient id="paint34_linear" x1="515.083" y1="285.798" x2="515.083" y2="267.446" gradientUnits="userSpaceOnUse">
<stop stop-color="#F44336"/>
<stop offset="1" stop-color="#EF5350"/>
</linearGradient>
<linearGradient id="paint35_linear" x1="441.676" y1="279.309" x2="441.676" y2="260.957" gradientUnits="userSpaceOnUse">
<stop stop-color="#F44336"/>
<stop offset="1" stop-color="#EF5350"/>
</linearGradient>
<linearGradient id="paint36_linear" x1="406.392" y1="285.798" x2="406.392" y2="267.446" gradientUnits="userSpaceOnUse">
<stop stop-color="#F44336"/>
<stop offset="1" stop-color="#EF5350"/>
</linearGradient>
<linearGradient id="paint37_linear" x1="450.801" y1="276.267" x2="450.801" y2="257.915" gradientUnits="userSpaceOnUse">
<stop stop-color="#F44336"/>
<stop offset="1" stop-color="#EF9A9A"/>
</linearGradient>
<linearGradient id="paint38_linear" x1="406.392" y1="281.54" x2="406.392" y2="263.188" gradientUnits="userSpaceOnUse">
<stop stop-color="#E57373"/>
<stop offset="1" stop-color="#F44336"/>
</linearGradient>
<linearGradient id="paint39_linear" x1="462.157" y1="285.392" x2="462.157" y2="267.04" gradientUnits="userSpaceOnUse">
<stop stop-color="#F44336"/>
<stop offset="1" stop-color="#EF5350"/>
</linearGradient>
<linearGradient id="paint40_linear" x1="202.569" y1="286.801" x2="195.233" y2="250.243" gradientUnits="userSpaceOnUse">
<stop stop-color="#F44336"/>
<stop offset="1" stop-color="#EF5350"/>
</linearGradient>
<linearGradient id="paint41_linear" x1="165.169" y1="308.632" x2="157.834" y2="272.074" gradientUnits="userSpaceOnUse">
<stop stop-color="#F44336"/>
<stop offset="1" stop-color="#EF5350"/>
</linearGradient>
<linearGradient id="paint42_linear" x1="204.902" y1="280.909" x2="197.566" y2="244.351" gradientUnits="userSpaceOnUse">
<stop stop-color="#F44336"/>
<stop offset="1" stop-color="#EF9A9A"/>
</linearGradient>
<linearGradient id="paint43_linear" x1="163.468" y1="300.149" x2="156.132" y2="263.592" gradientUnits="userSpaceOnUse">
<stop stop-color="#E57373"/>
<stop offset="1" stop-color="#F44336"/>
</linearGradient>
<linearGradient id="paint44_linear" x1="219.683" y1="296.853" x2="212.348" y2="260.295" gradientUnits="userSpaceOnUse">
<stop stop-color="#F44336"/>
<stop offset="1" stop-color="#EF5350"/>
</linearGradient>
<linearGradient id="paint45_linear" x1="215.25" y1="293.766" x2="215.25" y2="260.957" gradientUnits="userSpaceOnUse">
<stop stop-color="#F44336"/>
<stop offset="1" stop-color="#EF5350"/>
</linearGradient>
<linearGradient id="paint46_linear" x1="179.966" y1="305.366" x2="179.966" y2="272.557" gradientUnits="userSpaceOnUse">
<stop stop-color="#F44336"/>
<stop offset="1" stop-color="#EF5350"/>
</linearGradient>
<linearGradient id="paint47_linear" x1="224.375" y1="288.327" x2="224.375" y2="255.518" gradientUnits="userSpaceOnUse">
<stop stop-color="#E57373"/>
<stop offset="1" stop-color="#F44336"/>
</linearGradient>
<linearGradient id="paint48_linear" x1="179.966" y1="297.752" x2="179.966" y2="264.944" gradientUnits="userSpaceOnUse">
<stop stop-color="#E57373"/>
<stop offset="1" stop-color="#F44336"/>
</linearGradient>
<linearGradient id="paint49_linear" x1="235.731" y1="304.64" x2="235.731" y2="271.832" gradientUnits="userSpaceOnUse">
<stop stop-color="#F44336"/>
<stop offset="1" stop-color="#EF5350"/>
</linearGradient>
<linearGradient id="paint50_linear" x1="240.394" y1="299.687" x2="240.394" y2="281.335" gradientUnits="userSpaceOnUse">
<stop stop-color="#F44336"/>
<stop offset="1" stop-color="#EF5350"/>
</linearGradient>
<linearGradient id="paint51_linear" x1="205.109" y1="306.177" x2="205.109" y2="287.825" gradientUnits="userSpaceOnUse">
<stop stop-color="#F44336"/>
<stop offset="1" stop-color="#EF5350"/>
</linearGradient>
<linearGradient id="paint52_linear" x1="249.519" y1="296.646" x2="249.519" y2="278.294" gradientUnits="userSpaceOnUse">
<stop stop-color="#E57373"/>
<stop offset="1" stop-color="#F44336"/>
</linearGradient>
<linearGradient id="paint53_linear" x1="207.949" y1="297.254" x2="207.949" y2="278.902" gradientUnits="userSpaceOnUse">
<stop stop-color="#E57373"/>
<stop offset="1" stop-color="#F44336"/>
</linearGradient>
<linearGradient id="paint54_linear" x1="260.875" y1="305.771" x2="260.875" y2="287.419" gradientUnits="userSpaceOnUse">
<stop stop-color="#F44336"/>
<stop offset="1" stop-color="#EF5350"/>
</linearGradient>
<linearGradient id="paint55_linear" x1="187.468" y1="299.282" x2="187.468" y2="280.93" gradientUnits="userSpaceOnUse">
<stop stop-color="#F44336"/>
<stop offset="1" stop-color="#EF5350"/>
</linearGradient>
<linearGradient id="paint56_linear" x1="152.184" y1="305.771" x2="152.184" y2="287.419" gradientUnits="userSpaceOnUse">
<stop stop-color="#F44336"/>
<stop offset="1" stop-color="#EF5350"/>
</linearGradient>
<linearGradient id="paint57_linear" x1="196.593" y1="296.24" x2="196.593" y2="277.888" gradientUnits="userSpaceOnUse">
<stop stop-color="#F44336"/>
<stop offset="1" stop-color="#EF9A9A"/>
</linearGradient>
<linearGradient id="paint58_linear" x1="152.184" y1="301.512" x2="152.184" y2="283.16" gradientUnits="userSpaceOnUse">
<stop stop-color="#E57373"/>
<stop offset="1" stop-color="#F44336"/>
</linearGradient>
<linearGradient id="paint59_linear" x1="207.949" y1="305.365" x2="207.949" y2="287.013" gradientUnits="userSpaceOnUse">
<stop stop-color="#F44336"/>
<stop offset="1" stop-color="#EF5350"/>
</linearGradient>
<linearGradient id="paint60_linear" x1="111.78" y1="264.406" x2="104.444" y2="227.848" gradientUnits="userSpaceOnUse">
<stop stop-color="#F44336"/>
<stop offset="1" stop-color="#EF5350"/>
</linearGradient>
<linearGradient id="paint61_linear" x1="74.3811" y1="286.238" x2="67.0453" y2="249.68" gradientUnits="userSpaceOnUse">
<stop stop-color="#F44336"/>
<stop offset="1" stop-color="#EF5350"/>
</linearGradient>
<linearGradient id="paint62_linear" x1="114.114" y1="258.514" x2="106.778" y2="221.956" gradientUnits="userSpaceOnUse">
<stop stop-color="#F44336"/>
<stop offset="1" stop-color="#EF9A9A"/>
</linearGradient>
<linearGradient id="paint63_linear" x1="72.6795" y1="277.755" x2="65.3437" y2="241.197" gradientUnits="userSpaceOnUse">
<stop stop-color="#E57373"/>
<stop offset="1" stop-color="#F44336"/>
</linearGradient>
<linearGradient id="paint64_linear" x1="128.895" y1="274.458" x2="121.559" y2="237.9" gradientUnits="userSpaceOnUse">
<stop stop-color="#F44336"/>
<stop offset="1" stop-color="#EF5350"/>
</linearGradient>
<linearGradient id="paint65_linear" x1="124.462" y1="271.37" x2="124.462" y2="238.561" gradientUnits="userSpaceOnUse">
<stop stop-color="#F44336"/>
<stop offset="1" stop-color="#EF5350"/>
</linearGradient>
<linearGradient id="paint66_linear" x1="89.1776" y1="282.97" x2="89.1776" y2="250.162" gradientUnits="userSpaceOnUse">
<stop stop-color="#F44336"/>
<stop offset="1" stop-color="#EF5350"/>
</linearGradient>
<linearGradient id="paint67_linear" x1="133.587" y1="265.932" x2="133.587" y2="233.123" gradientUnits="userSpaceOnUse">
<stop stop-color="#E57373"/>
<stop offset="1" stop-color="#F44336"/>
</linearGradient>
<linearGradient id="paint68_linear" x1="89.1776" y1="275.357" x2="89.1776" y2="242.549" gradientUnits="userSpaceOnUse">
<stop stop-color="#E57373"/>
<stop offset="1" stop-color="#F44336"/>
</linearGradient>
<linearGradient id="paint69_linear" x1="144.943" y1="282.245" x2="144.943" y2="249.436" gradientUnits="userSpaceOnUse">
<stop stop-color="#F44336"/>
<stop offset="1" stop-color="#EF5350"/>
</linearGradient>
<linearGradient id="paint70_linear" x1="149.608" y1="277.292" x2="149.608" y2="258.94" gradientUnits="userSpaceOnUse">
<stop stop-color="#F44336"/>
<stop offset="1" stop-color="#EF5350"/>
</linearGradient>
<linearGradient id="paint71_linear" x1="114.323" y1="283.781" x2="114.323" y2="265.429" gradientUnits="userSpaceOnUse">
<stop stop-color="#F44336"/>
<stop offset="1" stop-color="#EF5350"/>
</linearGradient>
<linearGradient id="paint72_linear" x1="158.733" y1="274.25" x2="158.733" y2="255.898" gradientUnits="userSpaceOnUse">
<stop stop-color="#E57373"/>
<stop offset="1" stop-color="#F44336"/>
</linearGradient>
<linearGradient id="paint73_linear" x1="117.163" y1="274.859" x2="117.163" y2="256.507" gradientUnits="userSpaceOnUse">
<stop stop-color="#E57373"/>
<stop offset="1" stop-color="#F44336"/>
</linearGradient>
<linearGradient id="paint74_linear" x1="170.089" y1="283.375" x2="170.089" y2="265.023" gradientUnits="userSpaceOnUse">
<stop stop-color="#F44336"/>
<stop offset="1" stop-color="#EF5350"/>
</linearGradient>
<linearGradient id="paint75_linear" x1="96.6813" y1="276.887" x2="96.6813" y2="258.535" gradientUnits="userSpaceOnUse">
<stop stop-color="#F44336"/>
<stop offset="1" stop-color="#EF5350"/>
</linearGradient>
<linearGradient id="paint76_linear" x1="61.3972" y1="283.376" x2="61.3972" y2="265.024" gradientUnits="userSpaceOnUse">
<stop stop-color="#F44336"/>
<stop offset="1" stop-color="#EF5350"/>
</linearGradient>
<linearGradient id="paint77_linear" x1="105.807" y1="273.845" x2="105.807" y2="255.493" gradientUnits="userSpaceOnUse">
<stop stop-color="#F44336"/>
<stop offset="1" stop-color="#EF9A9A"/>
</linearGradient>
<linearGradient id="paint78_linear" x1="61.3972" y1="279.117" x2="61.3972" y2="260.765" gradientUnits="userSpaceOnUse">
<stop stop-color="#E57373"/>
<stop offset="1" stop-color="#F44336"/>
</linearGradient>
<linearGradient id="paint79_linear" x1="117.162" y1="282.971" x2="117.162" y2="264.619" gradientUnits="userSpaceOnUse">
<stop stop-color="#F44336"/>
<stop offset="1" stop-color="#EF5350"/>
</linearGradient>
</defs>
</svg>
